<svg width="99" height="99" viewBox="0 0 99 99" fill="none" xmlns="http://www.w3.org/2000/svg">
<g clip-path="url(#clip0_340_1777)">
<path d="M3.32017 55.6308V0H0V99H99V95.6798H43.3692C42.5097 73.9619 25.0381 56.4903 3.32017 55.6308ZM27.6235 69.0324L19.269 77.3869L21.6164 79.7343L29.9705 71.3801C35.9059 77.848 39.6468 86.3288 40.0488 95.6798H5.66756L12.2234 89.124L9.87602 86.7766L3.32017 93.3324V58.9512C12.6737 59.3534 21.1554 63.0949 27.6235 69.0324Z" fill="#CECECE"/>
<path d="M75.6016 21.0496L84.9914 11.6597L87.3385 14.0068L77.9487 23.3967L75.6016 21.0496Z" fill="#CECECE"/>
<path d="M56.8213 39.8241L66.2095 30.4359L68.5566 32.783L59.1684 42.1712L56.8213 39.8241Z" fill="#CECECE"/>
<path d="M38.0396 58.6003L47.4294 49.2104L49.7765 51.5575L40.3866 60.9474L38.0396 58.6003Z" fill="#CECECE"/>
</g>
<defs>
<clipPath id="clip0_340_1777">
<rect width="99" height="99" fill="white"/>
</clipPath>
</defs>
</svg>
