<svg width="21" height="20" viewBox="0 0 21 20" fill="none" xmlns="http://www.w3.org/2000/svg">
<g clip-path="url(#clip0_347_462)">
<path d="M10.5001 13.3337C10.3292 13.3337 10.1659 13.2637 10.0484 13.1403L5.67341 8.55699C5.29424 8.16033 5.57591 7.50033 6.12508 7.50033H8.41674V2.70866C8.41674 2.13449 8.88424 1.66699 9.45841 1.66699H11.5417C12.1159 1.66699 12.5834 2.13449 12.5834 2.70866V7.50033H14.8751C15.4242 7.50033 15.7059 8.16033 15.3267 8.55699L10.9517 13.1403C10.8342 13.2637 10.6709 13.3337 10.5001 13.3337Z" fill="#DDDDDD"/>
<path d="M19.0417 18.3333H1.95833C1.15417 18.3333 0.5 17.6792 0.5 16.875V16.4583C0.5 15.6542 1.15417 15 1.95833 15H19.0417C19.8458 15 20.5 15.6542 20.5 16.4583V16.875C20.5 17.6792 19.8458 18.3333 19.0417 18.3333Z" fill="#DDDDDD"/>
</g>
<defs>
<clipPath id="clip0_347_462">
<rect width="20" height="20" fill="white" transform="translate(0.5)"/>
</clipPath>
</defs>
</svg>
