<svg width="350" height="268" viewBox="0 0 350 268" fill="none" xmlns="http://www.w3.org/2000/svg">
<path d="M319.118 35.1685H176.99L148.681 1.54447C147.836 0.529927 146.57 -0.0390443 145.25 0.00208596H30.8824C13.7633 0.171748 -0.0197092 14.0918 2.11567e-05 31.1925V236.844C-0.000836686 253.931 13.777 267.831 30.8824 268H319.118C336.223 267.831 350.001 253.931 350 236.844V66.3246C350.001 49.2376 336.223 35.3381 319.118 35.1685Z" fill="#7939FF"/>
<path d="M48.76 144.154C47.656 144.154 46.64 143.994 45.712 143.674C44.8 143.354 44.008 142.858 43.336 142.186C42.664 141.498 42.136 140.61 41.752 139.522C41.384 138.434 41.2 137.122 41.2 135.586V135.106C41.2 133.634 41.392 132.378 41.776 131.338C42.176 130.282 42.712 129.418 43.384 128.746C44.072 128.074 44.872 127.578 45.784 127.258C46.712 126.938 47.704 126.778 48.76 126.778C49.704 126.778 50.592 126.89 51.424 127.114C52.256 127.338 52.984 127.69 53.608 128.17C54.248 128.634 54.76 129.234 55.144 129.97C55.544 130.706 55.776 131.578 55.84 132.586H52.096C51.92 131.626 51.536 130.922 50.944 130.474C50.352 130.026 49.624 129.802 48.76 129.802C48.264 129.802 47.784 129.89 47.32 130.066C46.872 130.242 46.472 130.538 46.12 130.954C45.768 131.37 45.48 131.914 45.256 132.586C45.048 133.258 44.944 134.098 44.944 135.106V135.586C44.944 136.642 45.056 137.53 45.28 138.25C45.504 138.954 45.792 139.522 46.144 139.954C46.512 140.37 46.92 140.674 47.368 140.866C47.832 141.042 48.296 141.13 48.76 141.13C49.672 141.13 50.424 140.898 51.016 140.434C51.608 139.954 51.968 139.258 52.096 138.346H55.84C55.76 139.402 55.528 140.298 55.144 141.034C54.76 141.77 54.256 142.37 53.632 142.834C53.008 143.298 52.28 143.634 51.448 143.842C50.616 144.05 49.72 144.154 48.76 144.154ZM58.7247 127.066H72.8847V143.866H69.2847V130.042H62.3247V143.866H58.7247V127.066ZM76.7247 127.066H88.4847V130.042H80.3487V133.786H87.7647V136.666H80.3487V140.89H88.4847V143.866H76.7247V127.066ZM104.352 143.866H91.6075V127.066H95.2075V140.89H101.928V127.066H105.528V140.89H107.568V146.986H104.352V143.866ZM110.217 127.066H124.377V143.866H120.777V130.042H113.817V143.866H110.217V127.066ZM128.217 127.066H134.697C136.969 127.066 138.657 127.57 139.761 128.578C140.865 129.57 141.417 130.906 141.417 132.586C141.417 134.266 140.865 135.61 139.761 136.618C138.657 137.61 136.969 138.106 134.697 138.106H131.817V143.866H128.217V127.066ZM134.337 135.13C135.617 135.13 136.513 134.914 137.025 134.482C137.553 134.05 137.817 133.418 137.817 132.586C137.817 131.77 137.553 131.146 137.025 130.714C136.513 130.266 135.617 130.042 134.337 130.042H131.817V135.13H134.337ZM144.178 127.066H155.938V130.042H147.802V133.786H155.218V136.666H147.802V140.89H155.938V143.866H144.178V127.066ZM157.621 140.89H159.493C159.733 140.33 159.933 139.658 160.093 138.874C160.253 138.074 160.381 137.234 160.477 136.354C160.573 135.458 160.645 134.546 160.693 133.618C160.741 132.674 160.765 131.77 160.765 130.906V127.066H172.597V140.89H174.421V146.986H171.205V143.866H160.837V146.986H157.621V140.89ZM168.997 140.89V130.042H164.173V131.386C164.173 133.578 164.069 135.426 163.861 136.93C163.653 138.434 163.357 139.754 162.973 140.89H168.997ZM177.31 144.154C177.182 144.154 177.022 144.146 176.83 144.13C176.638 144.13 176.478 144.114 176.35 144.082V140.866C176.43 140.882 176.55 140.89 176.71 140.89C177.126 140.89 177.478 140.802 177.766 140.626C178.054 140.434 178.286 140.026 178.462 139.402C178.654 138.778 178.79 137.874 178.87 136.69C178.95 135.49 178.99 133.882 178.99 131.866V127.066H191.23V143.866H187.63V130.042H182.398V132.346C182.398 134.89 182.286 136.938 182.062 138.49C181.838 140.042 181.51 141.242 181.078 142.09C180.646 142.922 180.11 143.474 179.47 143.746C178.846 144.018 178.126 144.154 177.31 144.154ZM202.261 144.154C201.205 144.154 200.197 143.994 199.237 143.674C198.293 143.354 197.453 142.85 196.717 142.162C195.997 141.474 195.421 140.594 194.989 139.522C194.557 138.434 194.341 137.122 194.341 135.586V135.106C194.341 133.634 194.557 132.378 194.989 131.338C195.421 130.282 195.997 129.418 196.717 128.746C197.453 128.074 198.293 127.578 199.237 127.258C200.197 126.938 201.205 126.778 202.261 126.778C203.317 126.778 204.317 126.938 205.261 127.258C206.221 127.578 207.061 128.074 207.781 128.746C208.517 129.418 209.101 130.282 209.533 131.338C209.965 132.378 210.181 133.634 210.181 135.106V135.586C210.181 137.122 209.965 138.434 209.533 139.522C209.101 140.594 208.517 141.474 207.781 142.162C207.061 142.85 206.221 143.354 205.261 143.674C204.317 143.994 203.317 144.154 202.261 144.154ZM202.261 141.13C202.805 141.13 203.325 141.042 203.821 140.866C204.333 140.674 204.781 140.362 205.165 139.93C205.549 139.498 205.853 138.93 206.077 138.226C206.317 137.522 206.437 136.642 206.437 135.586V135.106C206.437 134.114 206.317 133.282 206.077 132.61C205.853 131.938 205.549 131.394 205.165 130.978C204.781 130.562 204.333 130.266 203.821 130.09C203.325 129.898 202.805 129.802 202.261 129.802C201.717 129.802 201.189 129.898 200.677 130.09C200.181 130.266 199.741 130.562 199.357 130.978C198.973 131.394 198.661 131.938 198.421 132.61C198.197 133.282 198.085 134.114 198.085 135.106V135.586C198.085 136.642 198.197 137.522 198.421 138.226C198.661 138.93 198.973 139.498 199.357 139.93C199.741 140.362 200.181 140.674 200.677 140.866C201.189 141.042 201.717 141.13 202.261 141.13ZM217.263 135.13L211.743 127.066H215.583L220.023 133.906H221.223V127.066H224.823V133.906H226.023L230.607 127.066H234.303L228.783 134.962L234.543 143.866H230.559L226.023 136.546H224.823V143.866H221.223V136.546H220.023L215.439 143.866H211.503L217.263 135.13ZM236.943 127.066H248.703V130.042H240.567V133.786H247.983V136.666H240.567V140.89H248.703V143.866H236.943V127.066ZM251.826 127.066H255.426V133.738H262.626V127.066H266.226V143.866H262.626V136.714H255.426V143.866H251.826V127.066ZM270.061 127.066H273.661V138.226L280.981 127.066H284.461V143.866H280.861V132.706L273.517 143.866H270.061V127.066ZM291.511 137.338C290.311 136.954 289.415 136.338 288.823 135.49C288.231 134.642 287.935 133.634 287.935 132.466C287.935 131.65 288.071 130.914 288.343 130.258C288.615 129.586 289.015 129.018 289.543 128.554C290.071 128.074 290.727 127.706 291.511 127.45C292.311 127.194 293.239 127.066 294.295 127.066H301.135V143.866H297.535V137.722H294.871L291.151 143.866H287.215L291.511 137.338ZM291.535 132.466C291.535 132.866 291.591 133.218 291.703 133.522C291.815 133.826 292.007 134.082 292.279 134.29C292.551 134.482 292.903 134.634 293.335 134.746C293.783 134.842 294.343 134.89 295.015 134.89H297.535V130.042H295.015C294.343 130.042 293.783 130.098 293.335 130.21C292.903 130.306 292.551 130.458 292.279 130.666C292.007 130.858 291.815 131.106 291.703 131.41C291.591 131.714 291.535 132.066 291.535 132.466Z" fill="white"/>
<path opacity="0.7" d="M41.6 172.825V161.625H50.4V172.825H48.896V162.937H43.104V172.825H41.6ZM53.28 176.025V164.345H54.592V165.945C54.88 165.379 55.28 164.947 55.792 164.649C56.3147 164.339 56.9173 164.185 57.6 164.185C58.6667 164.185 59.52 164.537 60.16 165.241C60.8 165.934 61.12 166.969 61.12 168.345V168.665C61.12 169.625 60.9707 170.425 60.672 171.065C60.384 171.705 59.9733 172.185 59.44 172.505C58.9173 172.825 58.304 172.985 57.6 172.985C56.8747 172.985 56.2667 172.825 55.776 172.505C55.296 172.185 54.9333 171.785 54.688 171.305V176.025H53.28ZM57.28 171.737C57.9733 171.737 58.5493 171.475 59.008 170.953C59.4773 170.43 59.712 169.667 59.712 168.665V168.345C59.712 167.417 59.4773 166.702 59.008 166.201C58.5493 165.689 57.9733 165.433 57.28 165.433C56.768 165.433 56.3147 165.539 55.92 165.753C55.536 165.966 55.232 166.259 55.008 166.633C54.7947 166.995 54.688 167.406 54.688 167.865V169.145C54.688 169.657 54.7947 170.11 55.008 170.505C55.232 170.889 55.536 171.193 55.92 171.417C56.3147 171.63 56.768 171.737 57.28 171.737ZM63.1238 172.825V164.345H64.5318V170.745L68.9158 164.345H70.3238V172.825H68.9158V166.425L64.5318 172.825H63.1238ZM79.7694 172.985C79.0654 172.985 78.4574 172.883 77.9454 172.681C77.4334 172.478 77.0334 172.185 76.7454 171.801C76.4574 171.417 76.292 170.958 76.2494 170.425H77.6574C77.7107 170.702 77.828 170.937 78.0094 171.129C78.1907 171.321 78.4307 171.465 78.7294 171.561C79.028 171.657 79.3747 171.705 79.7694 171.705C80.5054 171.705 81.0387 171.582 81.3694 171.337C81.7107 171.081 81.8814 170.777 81.8814 170.425C81.8814 170.009 81.7427 169.683 81.4654 169.449C81.188 169.203 80.708 169.081 80.0254 169.081H78.5694V167.929H79.9294C80.516 167.929 80.932 167.817 81.1774 167.593C81.4334 167.369 81.5614 167.054 81.5614 166.649C81.5614 166.329 81.412 166.051 81.1134 165.817C80.8147 165.582 80.3667 165.465 79.7694 165.465C79.1187 165.465 78.644 165.571 78.3454 165.785C78.0574 165.987 77.8814 166.281 77.8174 166.665H76.4094C76.452 166.185 76.612 165.758 76.8894 165.385C77.1667 165.011 77.5507 164.718 78.0414 164.505C78.532 164.291 79.108 164.185 79.7694 164.185C80.8574 164.185 81.6627 164.414 82.1854 164.873C82.708 165.331 82.9694 165.923 82.9694 166.649C82.9694 167.054 82.868 167.411 82.6654 167.721C82.4627 168.019 82.1374 168.254 81.6894 168.425C82.2867 168.585 82.7027 168.841 82.9374 169.193C83.172 169.545 83.2894 169.955 83.2894 170.425C83.2894 170.883 83.156 171.31 82.8894 171.705C82.6227 172.089 82.228 172.398 81.7054 172.633C81.1934 172.867 80.548 172.985 79.7694 172.985ZM87.7116 172.985C87.093 172.985 86.565 172.873 86.1276 172.649C85.701 172.414 85.3756 172.099 85.1516 171.705C84.9276 171.299 84.8156 170.846 84.8156 170.345C84.8156 169.502 85.061 168.894 85.5516 168.521C86.053 168.147 86.7676 167.961 87.6956 167.961H90.4476V167.385C90.4476 166.659 90.2823 166.158 89.9516 165.881C89.6316 165.603 89.1463 165.465 88.4956 165.465C87.8876 165.465 87.445 165.582 87.1676 165.817C86.8903 166.041 86.7356 166.297 86.7036 166.585H85.2956C85.3276 166.126 85.4823 165.721 85.7596 165.369C86.037 165.006 86.4156 164.718 86.8956 164.505C87.3756 164.291 87.9356 164.185 88.5756 164.185C89.2476 164.185 89.829 164.291 90.3196 164.505C90.8103 164.707 91.189 165.033 91.4556 165.481C91.7223 165.918 91.8556 166.499 91.8556 167.225V170.665C91.8556 171.113 91.8556 171.507 91.8556 171.849C91.8663 172.179 91.893 172.505 91.9356 172.825H90.7036C90.6716 172.579 90.6503 172.35 90.6396 172.137C90.629 171.913 90.6236 171.662 90.6236 171.385C90.3996 171.833 90.037 172.211 89.5356 172.521C89.0343 172.83 88.4263 172.985 87.7116 172.985ZM88.0156 171.705C88.4636 171.705 88.869 171.625 89.2316 171.465C89.605 171.305 89.8983 171.07 90.1116 170.761C90.3356 170.451 90.4476 170.073 90.4476 169.625V169.049H87.9356C87.413 169.049 87.0023 169.155 86.7036 169.369C86.405 169.571 86.2556 169.897 86.2556 170.345C86.2556 170.739 86.3943 171.065 86.6716 171.321C86.9596 171.577 87.4076 171.705 88.0156 171.705ZM94.3425 172.825V164.345H95.7505V167.897H96.8705L100.039 164.345H101.703L98.0225 168.409L101.863 172.825H100.071L96.8705 169.113H95.7505V172.825H94.3425ZM105.805 172.985C105.187 172.985 104.659 172.873 104.221 172.649C103.795 172.414 103.469 172.099 103.245 171.705C103.021 171.299 102.909 170.846 102.909 170.345C102.909 169.502 103.155 168.894 103.645 168.521C104.147 168.147 104.861 167.961 105.789 167.961H108.541V167.385C108.541 166.659 108.376 166.158 108.045 165.881C107.725 165.603 107.24 165.465 106.589 165.465C105.981 165.465 105.539 165.582 105.261 165.817C104.984 166.041 104.829 166.297 104.797 166.585H103.389C103.421 166.126 103.576 165.721 103.853 165.369C104.131 165.006 104.509 164.718 104.989 164.505C105.469 164.291 106.029 164.185 106.669 164.185C107.341 164.185 107.923 164.291 108.413 164.505C108.904 164.707 109.283 165.033 109.549 165.481C109.816 165.918 109.949 166.499 109.949 167.225V170.665C109.949 171.113 109.949 171.507 109.949 171.849C109.96 172.179 109.987 172.505 110.029 172.825H108.797C108.765 172.579 108.744 172.35 108.733 172.137C108.723 171.913 108.717 171.662 108.717 171.385C108.493 171.833 108.131 172.211 107.629 172.521C107.128 172.83 106.52 172.985 105.805 172.985ZM106.109 171.705C106.557 171.705 106.963 171.625 107.325 171.465C107.699 171.305 107.992 171.07 108.205 170.761C108.429 170.451 108.541 170.073 108.541 169.625V169.049H106.029C105.507 169.049 105.096 169.155 104.797 169.369C104.499 169.571 104.349 169.897 104.349 170.345C104.349 170.739 104.488 171.065 104.765 171.321C105.053 171.577 105.501 171.705 106.109 171.705ZM115.316 172.985C114.612 172.985 114.004 172.883 113.492 172.681C112.98 172.478 112.58 172.185 112.292 171.801C112.004 171.417 111.839 170.958 111.796 170.425H113.204C113.258 170.702 113.375 170.937 113.556 171.129C113.738 171.321 113.978 171.465 114.276 171.561C114.575 171.657 114.922 171.705 115.316 171.705C116.052 171.705 116.586 171.582 116.916 171.337C117.258 171.081 117.428 170.777 117.428 170.425C117.428 170.009 117.29 169.683 117.012 169.449C116.735 169.203 116.255 169.081 115.572 169.081H114.116V167.929H115.476C116.063 167.929 116.479 167.817 116.724 167.593C116.98 167.369 117.108 167.054 117.108 166.649C117.108 166.329 116.959 166.051 116.66 165.817C116.362 165.582 115.914 165.465 115.316 165.465C114.666 165.465 114.191 165.571 113.892 165.785C113.604 165.987 113.428 166.281 113.364 166.665H111.956C111.999 166.185 112.159 165.758 112.436 165.385C112.714 165.011 113.098 164.718 113.588 164.505C114.079 164.291 114.655 164.185 115.316 164.185C116.404 164.185 117.21 164.414 117.732 164.873C118.255 165.331 118.516 165.923 118.516 166.649C118.516 167.054 118.415 167.411 118.212 167.721C118.01 168.019 117.684 168.254 117.236 168.425C117.834 168.585 118.25 168.841 118.484 169.193C118.719 169.545 118.836 169.955 118.836 170.425C118.836 170.883 118.703 171.31 118.436 171.705C118.17 172.089 117.775 172.398 117.252 172.633C116.74 172.867 116.095 172.985 115.316 172.985ZM124.363 172.985C123.648 172.985 122.976 172.83 122.347 172.521C121.728 172.211 121.227 171.737 120.843 171.097C120.469 170.457 120.283 169.646 120.283 168.665V168.345C120.283 167.406 120.464 166.633 120.827 166.025C121.189 165.406 121.669 164.947 122.267 164.649C122.864 164.339 123.509 164.185 124.203 164.185C125.451 164.185 126.416 164.526 127.099 165.209C127.781 165.891 128.123 166.857 128.123 168.105V169.001H121.691C121.691 169.662 121.824 170.19 122.091 170.585C122.368 170.979 122.709 171.267 123.115 171.449C123.531 171.619 123.947 171.705 124.363 171.705C125.003 171.705 125.493 171.598 125.835 171.385C126.187 171.171 126.437 170.878 126.587 170.505H127.963C127.792 171.315 127.371 171.934 126.699 172.361C126.037 172.777 125.259 172.985 124.363 172.985ZM124.283 165.465C123.845 165.465 123.429 165.55 123.035 165.721C122.64 165.881 122.315 166.137 122.059 166.489C121.813 166.841 121.691 167.294 121.691 167.849H126.795C126.784 167.262 126.661 166.798 126.427 166.457C126.203 166.105 125.904 165.854 125.531 165.705C125.157 165.545 124.741 165.465 124.283 165.465ZM133.164 174.825V171.577H134.204C134.364 171.363 134.502 171.006 134.62 170.505C134.737 169.993 134.828 169.395 134.892 168.713C134.966 168.03 135.004 167.321 135.004 166.585V164.345H140.924V171.577H142.124V174.825H140.78V172.825H134.508V174.825H133.164ZM135.644 171.577H139.516V165.593H136.38V166.905C136.38 167.801 136.316 168.67 136.188 169.513C136.07 170.345 135.889 171.033 135.644 171.577ZM143.811 172.825V164.345H145.219V170.745L149.603 164.345H151.011V172.825H149.603V166.425L145.219 172.825H143.811ZM156.457 172.985C155.753 172.985 155.145 172.883 154.633 172.681C154.121 172.478 153.721 172.185 153.433 171.801C153.145 171.417 152.98 170.958 152.937 170.425H154.345C154.398 170.702 154.516 170.937 154.697 171.129C154.878 171.321 155.118 171.465 155.417 171.561C155.716 171.657 156.062 171.705 156.457 171.705C157.193 171.705 157.726 171.582 158.057 171.337C158.398 171.081 158.569 170.777 158.569 170.425C158.569 170.009 158.43 169.683 158.153 169.449C157.876 169.203 157.396 169.081 156.713 169.081H155.257V167.929H156.617C157.204 167.929 157.62 167.817 157.865 167.593C158.121 167.369 158.249 167.054 158.249 166.649C158.249 166.329 158.1 166.051 157.801 165.817C157.502 165.582 157.054 165.465 156.457 165.465C155.806 165.465 155.332 165.571 155.033 165.785C154.745 165.987 154.569 166.281 154.505 166.665H153.097C153.14 166.185 153.3 165.758 153.577 165.385C153.854 165.011 154.238 164.718 154.729 164.505C155.22 164.291 155.796 164.185 156.457 164.185C157.545 164.185 158.35 164.414 158.873 164.873C159.396 165.331 159.657 165.923 159.657 166.649C159.657 167.054 159.556 167.411 159.353 167.721C159.15 168.019 158.825 168.254 158.377 168.425C158.974 168.585 159.39 168.841 159.625 169.193C159.86 169.545 159.977 169.955 159.977 170.425C159.977 170.883 159.844 171.31 159.577 171.705C159.31 172.089 158.916 172.398 158.393 172.633C157.881 172.867 157.236 172.985 156.457 172.985ZM164.399 172.985C163.78 172.985 163.252 172.873 162.815 172.649C162.388 172.414 162.063 172.099 161.839 171.705C161.615 171.299 161.503 170.846 161.503 170.345C161.503 169.502 161.748 168.894 162.239 168.521C162.74 168.147 163.455 167.961 164.383 167.961H167.135V167.385C167.135 166.659 166.97 166.158 166.639 165.881C166.319 165.603 165.834 165.465 165.183 165.465C164.575 165.465 164.132 165.582 163.855 165.817C163.578 166.041 163.423 166.297 163.391 166.585H161.983C162.015 166.126 162.17 165.721 162.447 165.369C162.724 165.006 163.103 164.718 163.583 164.505C164.063 164.291 164.623 164.185 165.263 164.185C165.935 164.185 166.516 164.291 167.007 164.505C167.498 164.707 167.876 165.033 168.143 165.481C168.41 165.918 168.543 166.499 168.543 167.225V170.665C168.543 171.113 168.543 171.507 168.543 171.849C168.554 172.179 168.58 172.505 168.623 172.825H167.391C167.359 172.579 167.338 172.35 167.327 172.137C167.316 171.913 167.311 171.662 167.311 171.385C167.087 171.833 166.724 172.211 166.223 172.521C165.722 172.83 165.114 172.985 164.399 172.985ZM164.703 171.705C165.151 171.705 165.556 171.625 165.919 171.465C166.292 171.305 166.586 171.07 166.799 170.761C167.023 170.451 167.135 170.073 167.135 169.625V169.049H164.623C164.1 169.049 163.69 169.155 163.391 169.369C163.092 169.571 162.943 169.897 162.943 170.345C162.943 170.739 163.082 171.065 163.359 171.321C163.647 171.577 164.095 171.705 164.703 171.705ZM171.03 172.825V164.345H172.438V170.745L176.822 164.345H178.23V172.825H176.822V166.425L172.438 172.825H171.03ZM174.63 163.305C173.798 163.305 173.19 163.129 172.806 162.777C172.422 162.414 172.23 161.897 172.23 161.225H173.606C173.606 161.587 173.691 161.859 173.862 162.041C174.033 162.222 174.289 162.313 174.63 162.313C174.982 162.313 175.243 162.222 175.414 162.041C175.595 161.859 175.686 161.587 175.686 161.225H177.03C177.03 161.897 176.838 162.414 176.454 162.777C176.07 163.129 175.462 163.305 174.63 163.305ZM180.796 172.825V164.345H182.204V167.881H186.588V164.345H187.996V172.825H186.588V169.129H182.204V172.825H180.796ZM189.921 169.001V167.689H194.721V169.001H189.921ZM196.639 172.825V164.345H203.679V172.825H202.271V165.593H198.047V172.825H196.639ZM206.233 176.025V164.345H207.545V165.945C207.833 165.379 208.233 164.947 208.745 164.649C209.268 164.339 209.87 164.185 210.553 164.185C211.62 164.185 212.473 164.537 213.113 165.241C213.753 165.934 214.073 166.969 214.073 168.345V168.665C214.073 169.625 213.924 170.425 213.625 171.065C213.337 171.705 212.926 172.185 212.393 172.505C211.87 172.825 211.257 172.985 210.553 172.985C209.828 172.985 209.22 172.825 208.729 172.505C208.249 172.185 207.886 171.785 207.641 171.305V176.025H206.233ZM210.233 171.737C210.926 171.737 211.502 171.475 211.961 170.953C212.43 170.43 212.665 169.667 212.665 168.665V168.345C212.665 167.417 212.43 166.702 211.961 166.201C211.502 165.689 210.926 165.433 210.233 165.433C209.721 165.433 209.268 165.539 208.873 165.753C208.489 165.966 208.185 166.259 207.961 166.633C207.748 166.995 207.641 167.406 207.641 167.865V169.145C207.641 169.657 207.748 170.11 207.961 170.505C208.185 170.889 208.489 171.193 208.873 171.417C209.268 171.63 209.721 171.737 210.233 171.737ZM219.597 172.985C218.882 172.985 218.21 172.83 217.581 172.521C216.962 172.201 216.461 171.721 216.077 171.081C215.704 170.441 215.517 169.635 215.517 168.665V168.345C215.517 167.427 215.704 166.659 216.077 166.041C216.461 165.422 216.962 164.958 217.581 164.649C218.21 164.339 218.882 164.185 219.597 164.185C220.322 164.185 220.994 164.339 221.613 164.649C222.232 164.958 222.728 165.422 223.101 166.041C223.485 166.659 223.677 167.427 223.677 168.345V168.665C223.677 169.635 223.485 170.441 223.101 171.081C222.728 171.721 222.232 172.201 221.613 172.521C220.994 172.83 220.322 172.985 219.597 172.985ZM219.597 171.705C220.034 171.705 220.45 171.609 220.845 171.417C221.25 171.214 221.581 170.889 221.837 170.441C222.104 169.993 222.237 169.401 222.237 168.665V168.345C222.237 167.662 222.104 167.113 221.837 166.697C221.581 166.27 221.25 165.961 220.845 165.769C220.45 165.566 220.034 165.465 219.597 165.465C219.17 165.465 218.754 165.566 218.349 165.769C217.944 165.961 217.608 166.27 217.341 166.697C217.085 167.113 216.957 167.662 216.957 168.345V168.665C216.957 169.401 217.085 169.993 217.341 170.441C217.608 170.889 217.944 171.214 218.349 171.417C218.754 171.609 219.17 171.705 219.597 171.705ZM229.191 172.985C228.476 172.985 227.804 172.83 227.175 172.521C226.556 172.211 226.055 171.737 225.671 171.097C225.297 170.457 225.111 169.646 225.111 168.665V168.345C225.111 167.406 225.292 166.633 225.655 166.025C226.017 165.406 226.497 164.947 227.095 164.649C227.692 164.339 228.337 164.185 229.031 164.185C230.279 164.185 231.244 164.526 231.927 165.209C232.609 165.891 232.951 166.857 232.951 168.105V169.001H226.519C226.519 169.662 226.652 170.19 226.919 170.585C227.196 170.979 227.537 171.267 227.943 171.449C228.359 171.619 228.775 171.705 229.191 171.705C229.831 171.705 230.321 171.598 230.663 171.385C231.015 171.171 231.265 170.878 231.415 170.505H232.791C232.62 171.315 232.199 171.934 231.527 172.361C230.865 172.777 230.087 172.985 229.191 172.985ZM229.111 165.465C228.673 165.465 228.257 165.55 227.863 165.721C227.468 165.881 227.143 166.137 226.887 166.489C226.641 166.841 226.519 167.294 226.519 167.849H231.623C231.612 167.262 231.489 166.798 231.255 166.457C231.031 166.105 230.732 165.854 230.359 165.705C229.985 165.545 229.569 165.465 229.111 165.465ZM234.952 172.825V164.345H236.36V167.897H237.48L240.648 164.345H242.312L238.632 168.409L242.472 172.825H240.68L237.48 169.113H236.36V172.825H234.952ZM246.091 172.825V165.593H243.195V164.345H250.395V165.593H247.499V172.825H246.091ZM254.102 172.985C253.484 172.985 252.956 172.873 252.518 172.649C252.092 172.414 251.766 172.099 251.542 171.705C251.318 171.299 251.206 170.846 251.206 170.345C251.206 169.502 251.452 168.894 251.942 168.521C252.444 168.147 253.158 167.961 254.086 167.961H256.838V167.385C256.838 166.659 256.673 166.158 256.342 165.881C256.022 165.603 255.537 165.465 254.886 165.465C254.278 165.465 253.836 165.582 253.558 165.817C253.281 166.041 253.126 166.297 253.094 166.585H251.686C251.718 166.126 251.873 165.721 252.15 165.369C252.428 165.006 252.806 164.718 253.286 164.505C253.766 164.291 254.326 164.185 254.966 164.185C255.638 164.185 256.22 164.291 256.71 164.505C257.201 164.707 257.58 165.033 257.846 165.481C258.113 165.918 258.246 166.499 258.246 167.225V170.665C258.246 171.113 258.246 171.507 258.246 171.849C258.257 172.179 258.284 172.505 258.326 172.825H257.094C257.062 172.579 257.041 172.35 257.03 172.137C257.02 171.913 257.014 171.662 257.014 171.385C256.79 171.833 256.428 172.211 255.926 172.521C255.425 172.83 254.817 172.985 254.102 172.985ZM254.406 171.705C254.854 171.705 255.26 171.625 255.622 171.465C255.996 171.305 256.289 171.07 256.502 170.761C256.726 170.451 256.838 170.073 256.838 169.625V169.049H254.326C253.804 169.049 253.393 169.155 253.094 169.369C252.796 169.571 252.646 169.897 252.646 170.345C252.646 170.739 252.785 171.065 253.062 171.321C253.35 171.577 253.798 171.705 254.406 171.705Z" fill="white"/>
</svg>
