<svg width="350" height="268" viewBox="0 0 350 268" fill="none" xmlns="http://www.w3.org/2000/svg">
<path d="M319.118 35.1685H176.99L148.681 1.54447C147.836 0.529927 146.57 -0.0390443 145.25 0.00208596H30.8824C13.7633 0.171748 -0.0197092 14.0918 2.11567e-05 31.1925V236.844C-0.000836686 253.931 13.777 267.831 30.8824 268H319.118C336.223 267.831 350.001 253.931 350 236.844V66.3246C350.001 49.2376 336.223 35.3381 319.118 35.1685Z" fill="#14BDBD"/>
<path d="M53.56 127.174C53.432 127.174 53.272 127.166 53.08 127.15C52.888 127.15 52.728 127.134 52.6 127.102V123.886C52.648 123.902 52.768 123.91 52.96 123.91C53.28 123.91 53.568 123.862 53.824 123.766C54.08 123.654 54.296 123.422 54.472 123.07C54.648 122.718 54.792 122.214 54.904 121.558C55.016 120.886 55.096 120.014 55.144 118.942C55.208 117.854 55.24 116.502 55.24 114.886V110.086H67.48V126.886H63.88V113.062H58.648V115.366C58.648 117.398 58.576 119.118 58.432 120.526C58.288 121.918 58.072 123.054 57.784 123.934C57.512 124.814 57.168 125.486 56.752 125.95C56.352 126.414 55.88 126.734 55.336 126.91C54.792 127.086 54.2 127.174 53.56 127.174ZM71.3346 126.886V110.086H74.9106V116.758H77.0226C77.1826 115.142 77.5906 113.83 78.2466 112.822C78.9026 111.798 79.7426 111.038 80.7666 110.542C81.7906 110.046 82.9186 109.798 84.1506 109.798C85.5586 109.798 86.8146 110.086 87.9186 110.662C89.0226 111.222 89.8866 112.11 90.5106 113.326C91.1346 114.542 91.4466 116.142 91.4466 118.126V118.606C91.4466 120.622 91.1266 122.262 90.4866 123.526C89.8466 124.79 88.9746 125.718 87.8706 126.31C86.7666 126.886 85.5266 127.174 84.1506 127.174C82.8706 127.174 81.7106 126.926 80.6706 126.43C79.6466 125.918 78.8066 125.118 78.1506 124.03C77.5106 122.942 77.1266 121.51 76.9986 119.734H74.9106V126.886H71.3346ZM84.1506 124.15C84.8386 124.15 85.4466 123.982 85.9746 123.646C86.5026 123.294 86.9266 122.718 87.2466 121.918C87.5666 121.102 87.7266 119.998 87.7266 118.606V118.126C87.7266 116.814 87.5666 115.774 87.2466 115.006C86.9266 114.222 86.5026 113.662 85.9746 113.326C85.4466 112.99 84.8386 112.822 84.1506 112.822C83.4786 112.822 82.8706 112.99 82.3266 113.326C81.7986 113.662 81.3746 114.222 81.0546 115.006C80.7346 115.774 80.5746 116.814 80.5746 118.126V118.606C80.5746 119.998 80.7346 121.102 81.0546 121.918C81.3746 122.718 81.7986 123.294 82.3266 123.646C82.8706 123.982 83.4786 124.15 84.1506 124.15ZM94.6081 126.886V110.086H106.44V113.062H98.1841V116.278H101.304C103.592 116.278 105.28 116.766 106.368 117.742C107.456 118.718 108 119.998 108 121.582C108 123.166 107.456 124.446 106.368 125.422C105.28 126.398 103.592 126.886 101.304 126.886H94.6081ZM98.1841 123.91H100.944C102.256 123.91 103.16 123.71 103.656 123.31C104.168 122.894 104.424 122.318 104.424 121.582C104.424 120.846 104.168 120.278 103.656 119.878C103.16 119.462 102.256 119.254 100.944 119.254H98.1841V123.91ZM117.979 127.174C116.923 127.174 115.923 127.014 114.979 126.694C114.035 126.374 113.187 125.878 112.435 125.206C111.699 124.518 111.115 123.63 110.683 122.542C110.267 121.454 110.059 120.142 110.059 118.606V118.126C110.059 116.654 110.267 115.398 110.683 114.358C111.115 113.302 111.699 112.438 112.435 111.766C113.187 111.094 114.035 110.598 114.979 110.278C115.923 109.958 116.923 109.798 117.979 109.798C119.035 109.798 120.035 109.958 120.979 110.278C121.923 110.598 122.763 111.094 123.499 111.766C124.251 112.438 124.835 113.302 125.251 114.358C125.683 115.398 125.899 116.654 125.899 118.126V118.606C125.899 120.142 125.683 121.454 125.251 122.542C124.835 123.63 124.251 124.518 123.499 125.206C122.763 125.878 121.923 126.374 120.979 126.694C120.035 127.014 119.035 127.174 117.979 127.174ZM117.979 124.15C118.715 124.15 119.395 123.982 120.019 123.646C120.659 123.294 121.171 122.718 121.555 121.918C121.955 121.102 122.155 119.998 122.155 118.606V118.126C122.155 116.814 121.955 115.774 121.555 115.006C121.171 114.222 120.659 113.662 120.019 113.326C119.395 112.99 118.715 112.822 117.979 112.822C117.259 112.822 116.579 112.99 115.939 113.326C115.299 113.662 114.779 114.222 114.379 115.006C113.995 115.774 113.803 116.814 113.803 118.126V118.606C113.803 119.998 113.995 121.102 114.379 121.918C114.779 122.718 115.299 123.294 115.939 123.646C116.579 123.982 117.259 124.15 117.979 124.15ZM129.014 126.886V110.086H132.59V121.246L139.91 110.086H143.366V126.886H139.79V115.726L132.446 126.886H129.014ZM136.19 109.126C135.166 109.126 134.31 108.974 133.622 108.67C132.95 108.35 132.454 107.894 132.134 107.302C131.814 106.694 131.654 105.942 131.654 105.046H134.678C134.678 105.814 134.806 106.342 135.062 106.63C135.318 106.918 135.694 107.062 136.19 107.062C136.718 107.062 137.11 106.918 137.366 106.63C137.622 106.342 137.75 105.814 137.75 105.046H140.774C140.774 105.942 140.614 106.694 140.294 107.302C139.974 107.894 139.478 108.35 138.806 108.67C138.134 108.974 137.262 109.126 136.19 109.126ZM153.249 126.886V110.086H167.361V126.886H163.785V113.062H156.825V126.886H153.249ZM178.425 127.174C177.369 127.174 176.369 127.014 175.425 126.694C174.481 126.374 173.633 125.878 172.881 125.206C172.145 124.518 171.561 123.63 171.129 122.542C170.713 121.454 170.505 120.142 170.505 118.606V118.126C170.505 116.654 170.713 115.398 171.129 114.358C171.561 113.302 172.145 112.438 172.881 111.766C173.633 111.094 174.481 110.598 175.425 110.278C176.369 109.958 177.369 109.798 178.425 109.798C179.481 109.798 180.481 109.958 181.425 110.278C182.369 110.598 183.209 111.094 183.945 111.766C184.697 112.438 185.281 113.302 185.697 114.358C186.129 115.398 186.345 116.654 186.345 118.126V118.606C186.345 120.142 186.129 121.454 185.697 122.542C185.281 123.63 184.697 124.518 183.945 125.206C183.209 125.878 182.369 126.374 181.425 126.694C180.481 127.014 179.481 127.174 178.425 127.174ZM178.425 124.15C179.161 124.15 179.841 123.982 180.465 123.646C181.105 123.294 181.617 122.718 182.001 121.918C182.401 121.102 182.601 119.998 182.601 118.606V118.126C182.601 116.814 182.401 115.774 182.001 115.006C181.617 114.222 181.105 113.662 180.465 113.326C179.841 112.99 179.161 112.822 178.425 112.822C177.705 112.822 177.025 112.99 176.385 113.326C175.745 113.662 175.225 114.222 174.825 115.006C174.441 115.774 174.249 116.814 174.249 118.126V118.606C174.249 119.998 174.441 121.102 174.825 121.918C175.225 122.718 175.745 123.294 176.385 123.646C177.025 123.982 177.705 124.15 178.425 124.15ZM187.339 130.006V123.91H189.211C189.451 123.35 189.651 122.678 189.811 121.894C189.987 121.11 190.123 120.27 190.219 119.374C190.315 118.478 190.379 117.566 190.411 116.638C190.459 115.694 190.483 114.782 190.483 113.902V110.086H202.291V123.91H204.115V130.006H200.947V126.886H190.555V130.006H187.339ZM192.691 123.91H198.715V113.062H193.891V114.382C193.891 116.59 193.779 118.454 193.555 119.974C193.347 121.478 193.059 122.79 192.691 123.91ZM205.685 126.886L211.925 110.086H215.501L221.765 126.886H217.973L216.677 123.454H210.461L209.189 126.886H205.685ZM211.565 120.478H215.597L213.581 114.646L211.565 120.478ZM223.936 126.886V110.086H230.392C231.912 110.086 233.168 110.318 234.16 110.782C235.152 111.23 235.888 111.87 236.368 112.702C236.848 113.518 237.088 114.486 237.088 115.606C237.088 116.726 236.848 117.702 236.368 118.534C235.888 119.35 235.152 119.99 234.16 120.454C233.168 120.902 231.912 121.126 230.392 121.126H227.512V126.886H223.936ZM227.512 118.15H230.032C231.312 118.15 232.208 117.934 232.72 117.502C233.248 117.07 233.512 116.438 233.512 115.606C233.512 114.79 233.248 114.166 232.72 113.734C232.208 113.286 231.312 113.062 230.032 113.062H227.512V118.15ZM247.073 127.174C246.017 127.174 245.017 127.014 244.073 126.694C243.129 126.374 242.281 125.878 241.529 125.206C240.793 124.518 240.209 123.63 239.777 122.542C239.361 121.454 239.153 120.142 239.153 118.606V118.126C239.153 116.654 239.361 115.398 239.777 114.358C240.209 113.302 240.793 112.438 241.529 111.766C242.281 111.094 243.129 110.598 244.073 110.278C245.017 109.958 246.017 109.798 247.073 109.798C248.129 109.798 249.129 109.958 250.073 110.278C251.017 110.598 251.857 111.094 252.593 111.766C253.345 112.438 253.929 113.302 254.345 114.358C254.777 115.398 254.993 116.654 254.993 118.126V118.606C254.993 120.142 254.777 121.454 254.345 122.542C253.929 123.63 253.345 124.518 252.593 125.206C251.857 125.878 251.017 126.374 250.073 126.694C249.129 127.014 248.129 127.174 247.073 127.174ZM247.073 124.15C247.809 124.15 248.489 123.982 249.113 123.646C249.753 123.294 250.265 122.718 250.649 121.918C251.049 121.102 251.249 119.998 251.249 118.606V118.126C251.249 116.814 251.049 115.774 250.649 115.006C250.265 114.222 249.753 113.662 249.113 113.326C248.489 112.99 247.809 112.822 247.073 112.822C246.353 112.822 245.673 112.99 245.033 113.326C244.393 113.662 243.873 114.222 243.473 115.006C243.089 115.774 242.897 116.814 242.897 118.126V118.606C242.897 119.998 243.089 121.102 243.473 121.918C243.873 122.718 244.393 123.294 245.033 123.646C245.673 123.982 246.353 124.15 247.073 124.15ZM258.108 126.886V110.086H261.684V116.926H263.124L268.5 110.086H272.46L265.884 118.03L272.7 126.886H268.5L263.124 119.566H261.684V126.886H258.108ZM53.944 158.886V142.086H57.52V148.758H64.72V142.086H68.296V158.886H64.72V151.734H57.52V158.886H53.944ZM70.4744 158.886L76.7144 142.086H80.2904L86.5544 158.886H82.7624L81.4664 155.454H75.2504L73.9784 158.886H70.4744ZM76.3544 152.478H80.3864L78.3704 146.646L76.3544 152.478ZM94.7253 158.886V142.086H101.901C103.789 142.086 105.173 142.486 106.053 143.286C106.949 144.07 107.397 145.166 107.397 146.574C107.397 147.438 107.181 148.182 106.749 148.806C106.333 149.414 105.765 149.854 105.045 150.126C106.005 150.35 106.757 150.806 107.301 151.494C107.845 152.166 108.117 153.046 108.117 154.134C108.117 155.094 107.917 155.934 107.517 156.654C107.117 157.358 106.485 157.91 105.621 158.31C104.757 158.694 103.621 158.886 102.213 158.886H94.7253ZM98.3013 156.15H101.565C102.685 156.15 103.461 155.958 103.893 155.574C104.325 155.19 104.541 154.622 104.541 153.87C104.541 153.118 104.325 152.534 103.893 152.118C103.477 151.686 102.693 151.47 101.541 151.47H98.3013V156.15ZM98.3013 149.022H101.181C102.157 149.022 102.837 148.83 103.221 148.446C103.621 148.062 103.821 147.542 103.821 146.886C103.821 146.214 103.629 145.702 103.245 145.35C102.861 144.998 102.181 144.822 101.205 144.822H98.3013V149.022ZM111.038 158.886V142.086H114.614V148.086H117.014C119.302 148.086 120.99 148.582 122.078 149.574C123.166 150.55 123.71 151.854 123.71 153.486C123.71 155.118 123.166 156.43 122.078 157.422C120.99 158.398 119.302 158.886 117.014 158.886H111.038ZM114.614 155.91H116.654C117.934 155.91 118.83 155.694 119.342 155.262C119.87 154.83 120.134 154.238 120.134 153.486C120.134 152.734 119.87 152.142 119.342 151.71C118.83 151.278 117.934 151.062 116.654 151.062H114.614V155.91ZM125.414 158.886V142.086H129.014V158.886H125.414ZM132.858 158.886V142.086H144.69V145.062H136.434V148.278H139.554C141.842 148.278 143.53 148.766 144.618 149.742C145.706 150.718 146.25 151.998 146.25 153.582C146.25 155.166 145.706 156.446 144.618 157.422C143.53 158.398 141.842 158.886 139.554 158.886H132.858ZM136.434 155.91H139.194C140.506 155.91 141.41 155.71 141.906 155.31C142.418 154.894 142.674 154.318 142.674 153.582C142.674 152.846 142.418 152.278 141.906 151.878C141.41 151.462 140.506 151.254 139.194 151.254H136.434V155.91ZM156.229 159.174C155.173 159.174 154.173 159.014 153.229 158.694C152.285 158.374 151.437 157.878 150.685 157.206C149.949 156.518 149.365 155.63 148.933 154.542C148.517 153.454 148.309 152.142 148.309 150.606V150.126C148.309 148.654 148.517 147.398 148.933 146.358C149.365 145.302 149.949 144.438 150.685 143.766C151.437 143.094 152.285 142.598 153.229 142.278C154.173 141.958 155.173 141.798 156.229 141.798C157.285 141.798 158.285 141.958 159.229 142.278C160.173 142.598 161.013 143.094 161.749 143.766C162.501 144.438 163.085 145.302 163.501 146.358C163.933 147.398 164.149 148.654 164.149 150.126V150.606C164.149 152.142 163.933 153.454 163.501 154.542C163.085 155.63 162.501 156.518 161.749 157.206C161.013 157.878 160.173 158.374 159.229 158.694C158.285 159.014 157.285 159.174 156.229 159.174ZM156.229 156.15C156.965 156.15 157.645 155.982 158.269 155.646C158.909 155.294 159.421 154.718 159.805 153.918C160.205 153.102 160.405 151.998 160.405 150.606V150.126C160.405 148.814 160.205 147.774 159.805 147.006C159.421 146.222 158.909 145.662 158.269 145.326C157.645 144.99 156.965 144.822 156.229 144.822C155.509 144.822 154.829 144.99 154.189 145.326C153.549 145.662 153.029 146.222 152.629 147.006C152.245 147.774 152.053 148.814 152.053 150.126V150.606C152.053 151.998 152.245 153.102 152.629 153.918C153.029 154.718 153.549 155.294 154.189 155.646C154.829 155.982 155.509 156.15 156.229 156.15ZM167.264 158.886V142.086H173.72C175.24 142.086 176.496 142.318 177.488 142.782C178.48 143.23 179.216 143.87 179.696 144.702C180.176 145.518 180.416 146.486 180.416 147.606C180.416 148.726 180.176 149.702 179.696 150.534C179.216 151.35 178.48 151.99 177.488 152.454C176.496 152.902 175.24 153.126 173.72 153.126H170.84V158.886H167.264ZM170.84 150.15H173.36C174.64 150.15 175.536 149.934 176.048 149.502C176.576 149.07 176.84 148.438 176.84 147.606C176.84 146.79 176.576 146.166 176.048 145.734C175.536 145.286 174.64 145.062 173.36 145.062H170.84V150.15Z" fill="white"/>
<path opacity="0.7" d="M53.6 189.806V178.606H62.4V189.806H60.896V179.918H55.104V189.806H53.6ZM68.8 189.966C68.0853 189.966 67.4133 189.811 66.784 189.502C66.1653 189.182 65.664 188.702 65.28 188.062C64.9067 187.422 64.72 186.616 64.72 185.646V185.326C64.72 184.408 64.9067 183.64 65.28 183.022C65.664 182.403 66.1653 181.939 66.784 181.63C67.4133 181.32 68.0853 181.166 68.8 181.166C69.5253 181.166 70.1973 181.32 70.816 181.63C71.4347 181.939 71.9307 182.403 72.304 183.022C72.688 183.64 72.88 184.408 72.88 185.326V185.646C72.88 186.616 72.688 187.422 72.304 188.062C71.9307 188.702 71.4347 189.182 70.816 189.502C70.1973 189.811 69.5253 189.966 68.8 189.966ZM68.8 188.686C69.2373 188.686 69.6533 188.59 70.048 188.398C70.4533 188.195 70.784 187.87 71.04 187.422C71.3067 186.974 71.44 186.382 71.44 185.646V185.326C71.44 184.643 71.3067 184.094 71.04 183.678C70.784 183.251 70.4533 182.942 70.048 182.75C69.6533 182.547 69.2373 182.446 68.8 182.446C68.3733 182.446 67.9573 182.547 67.552 182.75C67.1467 182.942 66.8107 183.251 66.544 183.678C66.288 184.094 66.16 184.643 66.16 185.326V185.646C66.16 186.382 66.288 186.974 66.544 187.422C66.8107 187.87 67.1467 188.195 67.552 188.398C67.9573 188.59 68.3733 188.686 68.8 188.686ZM78.1538 189.966C77.4284 189.966 76.7724 189.811 76.1858 189.502C75.6098 189.182 75.1511 188.702 74.8098 188.062C74.4791 187.422 74.3138 186.616 74.3138 185.646V185.326C74.3138 184.408 74.4951 183.64 74.8578 183.022C75.2204 182.403 75.6951 181.939 76.2818 181.63C76.8684 181.32 77.4924 181.166 78.1538 181.166C78.8258 181.166 79.4018 181.288 79.8818 181.534C80.3724 181.768 80.7671 182.094 81.0658 182.51C81.3644 182.915 81.5671 183.374 81.6737 183.886H80.2338C80.0631 183.48 79.8231 183.139 79.5138 182.862C79.2151 182.584 78.7618 182.446 78.1538 182.446C77.7378 182.446 77.3484 182.547 76.9858 182.75C76.6231 182.942 76.3244 183.251 76.0898 183.678C75.8658 184.094 75.7538 184.643 75.7538 185.326V185.646C75.7538 186.371 75.8658 186.958 76.0898 187.406C76.3244 187.854 76.6231 188.179 76.9858 188.382C77.3484 188.584 77.7378 188.686 78.1538 188.686C78.6764 188.686 79.1138 188.558 79.4658 188.302C79.8284 188.046 80.0844 187.694 80.2338 187.246H81.6737C81.5458 187.8 81.3164 188.286 80.9858 188.702C80.6551 189.107 80.2498 189.422 79.7698 189.646C79.2898 189.859 78.7511 189.966 78.1538 189.966ZM83.1925 189.966C83.1178 189.966 83.0378 189.96 82.9525 189.95C82.8778 189.939 82.7978 189.928 82.7125 189.918V188.51C82.7445 188.52 82.8245 188.526 82.9525 188.526C83.2725 188.526 83.5338 188.387 83.7365 188.11C83.9392 187.822 84.0832 187.32 84.1685 186.606C84.2645 185.88 84.3125 184.867 84.3125 183.566V181.326H90.3925V189.806H88.9845V182.574H85.7205V183.886C85.7205 185.07 85.6672 186.056 85.5605 186.846C85.4538 187.624 85.2938 188.243 85.0805 188.702C84.8778 189.16 84.6165 189.486 84.2965 189.678C83.9765 189.87 83.6085 189.966 83.1925 189.966ZM96.4719 189.966C95.7572 189.966 95.0852 189.811 94.4559 189.502C93.8372 189.192 93.3359 188.718 92.9519 188.078C92.5785 187.438 92.3919 186.627 92.3919 185.646V185.326C92.3919 184.387 92.5732 183.614 92.9359 183.006C93.2985 182.387 93.7785 181.928 94.3759 181.63C94.9732 181.32 95.6185 181.166 96.3119 181.166C97.5599 181.166 98.5252 181.507 99.2079 182.19C99.8905 182.872 100.232 183.838 100.232 185.086V185.982H93.7999C93.7999 186.643 93.9332 187.171 94.1999 187.566C94.4772 187.96 94.8185 188.248 95.2239 188.43C95.6399 188.6 96.0559 188.686 96.4719 188.686C97.1119 188.686 97.6025 188.579 97.9439 188.366C98.2959 188.152 98.5465 187.859 98.6959 187.486H100.072C99.9012 188.296 99.4799 188.915 98.8079 189.342C98.1465 189.758 97.3679 189.966 96.4719 189.966ZM96.3919 182.446C95.9545 182.446 95.5385 182.531 95.1439 182.702C94.7492 182.862 94.4239 183.118 94.1679 183.47C93.9225 183.822 93.7999 184.275 93.7999 184.83H98.9039C98.8932 184.243 98.7705 183.779 98.5359 183.438C98.3119 183.086 98.0132 182.835 97.6399 182.686C97.2665 182.526 96.8505 182.446 96.3919 182.446ZM106.233 193.006V181.326H107.545V182.926C107.833 182.36 108.233 181.928 108.745 181.63C109.268 181.32 109.87 181.166 110.553 181.166C111.62 181.166 112.473 181.518 113.113 182.222C113.753 182.915 114.073 183.95 114.073 185.326V185.646C114.073 186.606 113.924 187.406 113.625 188.046C113.337 188.686 112.926 189.166 112.393 189.486C111.87 189.806 111.257 189.966 110.553 189.966C109.828 189.966 109.22 189.806 108.729 189.486C108.249 189.166 107.886 188.766 107.641 188.286V193.006H106.233ZM110.233 188.718C110.926 188.718 111.502 188.456 111.961 187.934C112.43 187.411 112.665 186.648 112.665 185.646V185.326C112.665 184.398 112.43 183.683 111.961 183.182C111.502 182.67 110.926 182.414 110.233 182.414C109.721 182.414 109.268 182.52 108.873 182.734C108.489 182.947 108.185 183.24 107.961 183.614C107.748 183.976 107.641 184.387 107.641 184.846V186.126C107.641 186.638 107.748 187.091 107.961 187.486C108.185 187.87 108.489 188.174 108.873 188.398C109.268 188.611 109.721 188.718 110.233 188.718ZM119.597 189.966C118.882 189.966 118.21 189.811 117.581 189.502C116.962 189.192 116.461 188.718 116.077 188.078C115.704 187.438 115.517 186.627 115.517 185.646V185.326C115.517 184.387 115.698 183.614 116.061 183.006C116.424 182.387 116.904 181.928 117.501 181.63C118.098 181.32 118.744 181.166 119.437 181.166C120.685 181.166 121.65 181.507 122.333 182.19C123.016 182.872 123.357 183.838 123.357 185.086V185.982H116.925C116.925 186.643 117.058 187.171 117.325 187.566C117.602 187.96 117.944 188.248 118.349 188.43C118.765 188.6 119.181 188.686 119.597 188.686C120.237 188.686 120.728 188.579 121.069 188.366C121.421 188.152 121.672 187.859 121.821 187.486H123.197C123.026 188.296 122.605 188.915 121.933 189.342C121.272 189.758 120.493 189.966 119.597 189.966ZM119.517 182.446C119.08 182.446 118.664 182.531 118.269 182.702C117.874 182.862 117.549 183.118 117.293 183.47C117.048 183.822 116.925 184.275 116.925 184.83H122.029C122.018 184.243 121.896 183.779 121.661 183.438C121.437 183.086 121.138 182.835 120.765 182.686C120.392 182.526 119.976 182.446 119.517 182.446ZM125.358 189.806V181.326H126.862L129.886 186.606L132.91 181.326H134.318V189.806H132.91V183.646L130.398 187.966H129.278L126.766 183.646V189.806H125.358ZM140.394 189.966C139.679 189.966 139.007 189.811 138.378 189.502C137.759 189.182 137.258 188.702 136.874 188.062C136.5 187.422 136.314 186.616 136.314 185.646V185.326C136.314 184.408 136.5 183.64 136.874 183.022C137.258 182.403 137.759 181.939 138.378 181.63C139.007 181.32 139.679 181.166 140.394 181.166C141.119 181.166 141.791 181.32 142.41 181.63C143.028 181.939 143.524 182.403 143.898 183.022C144.282 183.64 144.474 184.408 144.474 185.326V185.646C144.474 186.616 144.282 187.422 143.898 188.062C143.524 188.702 143.028 189.182 142.41 189.502C141.791 189.811 141.119 189.966 140.394 189.966ZM140.394 188.686C140.831 188.686 141.247 188.59 141.642 188.398C142.047 188.195 142.378 187.87 142.634 187.422C142.9 186.974 143.034 186.382 143.034 185.646V185.326C143.034 184.643 142.9 184.094 142.634 183.678C142.378 183.251 142.047 182.942 141.642 182.75C141.247 182.547 140.831 182.446 140.394 182.446C139.967 182.446 139.551 182.547 139.146 182.75C138.74 182.942 138.404 183.251 138.138 183.678C137.882 184.094 137.754 184.643 137.754 185.326V185.646C137.754 186.382 137.882 186.974 138.138 187.422C138.404 187.87 138.74 188.195 139.146 188.398C139.551 188.59 139.967 188.686 140.394 188.686ZM146.468 189.806V181.326H147.876V184.862H152.26V181.326H153.668V189.806H152.26V186.11H147.876V189.806H146.468ZM158.169 189.806V182.574H155.273V181.326H162.473V182.574H159.577V189.806H158.169ZM166.18 189.966C165.562 189.966 165.034 189.854 164.596 189.63C164.17 189.395 163.844 189.08 163.62 188.686C163.396 188.28 163.284 187.827 163.284 187.326C163.284 186.483 163.53 185.875 164.02 185.502C164.522 185.128 165.236 184.942 166.164 184.942H168.916V184.366C168.916 183.64 168.751 183.139 168.42 182.862C168.1 182.584 167.615 182.446 166.964 182.446C166.356 182.446 165.914 182.563 165.636 182.798C165.359 183.022 165.204 183.278 165.172 183.566H163.764C163.796 183.107 163.951 182.702 164.228 182.35C164.506 181.987 164.884 181.699 165.364 181.486C165.844 181.272 166.404 181.166 167.044 181.166C167.716 181.166 168.298 181.272 168.788 181.486C169.279 181.688 169.658 182.014 169.924 182.462C170.191 182.899 170.324 183.48 170.324 184.206V187.646C170.324 188.094 170.324 188.488 170.324 188.83C170.335 189.16 170.362 189.486 170.404 189.806H169.172C169.14 189.56 169.119 189.331 169.108 189.118C169.098 188.894 169.092 188.643 169.092 188.366C168.868 188.814 168.506 189.192 168.004 189.502C167.503 189.811 166.895 189.966 166.18 189.966ZM166.484 188.686C166.932 188.686 167.338 188.606 167.7 188.446C168.074 188.286 168.367 188.051 168.58 187.742C168.804 187.432 168.916 187.054 168.916 186.606V186.03H166.404C165.882 186.03 165.471 186.136 165.172 186.35C164.874 186.552 164.724 186.878 164.724 187.326C164.724 187.72 164.863 188.046 165.14 188.302C165.428 188.558 165.876 188.686 166.484 188.686Z" fill="white"/>
</svg>
