<svg width="350" height="268" viewBox="0 0 350 268" fill="none" xmlns="http://www.w3.org/2000/svg">
<path d="M319.118 35.1685H176.99L148.681 1.54447C147.836 0.529927 146.57 -0.0390443 145.25 0.00208596H30.8824C13.7633 0.171748 -0.0197092 14.0918 2.11567e-05 31.1925V236.844C-0.000836686 253.931 13.777 267.831 30.8824 268H319.118C336.223 267.831 350.001 253.931 350 236.844V66.3246C350.001 49.2376 336.223 35.3381 319.118 35.1685Z" fill="#FFA216"/>
<path d="M41.944 127V110.2H52.96V113.176H45.52V127H41.944ZM51.5134 127L57.7534 110.2H61.3294L67.5934 127H63.8014L62.5054 123.568H56.2894L55.0174 127H51.5134ZM57.3934 120.592H61.4254L59.4094 114.76L57.3934 120.592ZM69.7643 127V110.2H76.2203C77.7403 110.2 78.9963 110.432 79.9883 110.896C80.9803 111.344 81.7163 111.984 82.1963 112.816C82.6763 113.632 82.9163 114.6 82.9163 115.72C82.9163 116.84 82.6763 117.816 82.1963 118.648C81.7163 119.464 80.9803 120.104 79.9883 120.568C78.9963 121.016 77.7403 121.24 76.2203 121.24H73.3403V127H69.7643ZM73.3403 118.264H75.8603C77.1403 118.264 78.0363 118.048 78.5483 117.616C79.0763 117.184 79.3403 116.552 79.3403 115.72C79.3403 114.904 79.0763 114.28 78.5483 113.848C78.0363 113.4 77.1403 113.176 75.8603 113.176H73.3403V118.264ZM82.3338 127L88.5738 110.2H92.1498L98.4138 127H94.6218L93.3258 123.568H87.1098L85.8378 127H82.3338ZM88.2138 120.592H92.2458L90.2298 114.76L88.2138 120.592ZM100.585 127V110.2H104.161V116.872H111.361V110.2H114.937V127H111.361V119.848H104.161V127H100.585ZM122.755 127V113.176H117.355V110.2H131.731V113.176H126.331V127H122.755ZM134.147 127V110.2H137.723V121.36L145.043 110.2H148.499V127H144.923V115.84L137.579 127H134.147ZM152.382 127V110.2H158.838C160.358 110.2 161.614 110.432 162.606 110.896C163.598 111.344 164.334 111.984 164.814 112.816C165.294 113.632 165.534 114.6 165.534 115.72C165.534 116.84 165.294 117.816 164.814 118.648C164.334 119.464 163.598 120.104 162.606 120.568C161.614 121.016 160.358 121.24 158.838 121.24H155.958V127H152.382ZM155.958 118.264H158.478C159.758 118.264 160.654 118.048 161.166 117.616C161.694 117.184 161.958 116.552 161.958 115.72C161.958 114.904 161.694 114.28 161.166 113.848C160.654 113.4 159.758 113.176 158.478 113.176H155.958V118.264ZM175.518 127.288C174.462 127.288 173.462 127.128 172.518 126.808C171.574 126.488 170.726 125.992 169.974 125.32C169.238 124.632 168.654 123.744 168.222 122.656C167.806 121.568 167.598 120.256 167.598 118.72V118.24C167.598 116.768 167.806 115.512 168.222 114.472C168.654 113.416 169.238 112.552 169.974 111.88C170.726 111.208 171.574 110.712 172.518 110.392C173.462 110.072 174.462 109.912 175.518 109.912C176.574 109.912 177.574 110.072 178.518 110.392C179.462 110.712 180.302 111.208 181.038 111.88C181.79 112.552 182.374 113.416 182.79 114.472C183.222 115.512 183.438 116.768 183.438 118.24V118.72C183.438 120.256 183.222 121.568 182.79 122.656C182.374 123.744 181.79 124.632 181.038 125.32C180.302 125.992 179.462 126.488 178.518 126.808C177.574 127.128 176.574 127.288 175.518 127.288ZM175.518 124.264C176.254 124.264 176.934 124.096 177.558 123.76C178.198 123.408 178.71 122.832 179.094 122.032C179.494 121.216 179.694 120.112 179.694 118.72V118.24C179.694 116.928 179.494 115.888 179.094 115.12C178.71 114.336 178.198 113.776 177.558 113.44C176.934 113.104 176.254 112.936 175.518 112.936C174.798 112.936 174.118 113.104 173.478 113.44C172.838 113.776 172.318 114.336 171.918 115.12C171.534 115.888 171.342 116.928 171.342 118.24V118.72C171.342 120.112 171.534 121.216 171.918 122.032C172.318 122.832 172.838 123.408 173.478 123.76C174.118 124.096 174.798 124.264 175.518 124.264ZM186.553 127V110.2H193.729C195.617 110.2 197.001 110.6 197.881 111.4C198.777 112.184 199.225 113.28 199.225 114.688C199.225 115.552 199.009 116.296 198.577 116.92C198.161 117.528 197.593 117.968 196.873 118.24C197.833 118.464 198.585 118.92 199.129 119.608C199.673 120.28 199.945 121.16 199.945 122.248C199.945 123.208 199.745 124.048 199.345 124.768C198.945 125.472 198.313 126.024 197.449 126.424C196.585 126.808 195.449 127 194.041 127H186.553ZM190.129 124.264H193.393C194.513 124.264 195.289 124.072 195.721 123.688C196.153 123.304 196.369 122.736 196.369 121.984C196.369 121.232 196.153 120.648 195.721 120.232C195.305 119.8 194.521 119.584 193.369 119.584H190.129V124.264ZM190.129 117.136H193.009C193.985 117.136 194.665 116.944 195.049 116.56C195.449 116.176 195.649 115.656 195.649 115C195.649 114.328 195.457 113.816 195.073 113.464C194.689 113.112 194.009 112.936 193.033 112.936H190.129V117.136ZM200.74 127L206.98 110.2H210.556L216.82 127H213.028L211.732 123.568H205.516L204.244 127H200.74ZM206.62 120.592H210.652L208.636 114.76L206.62 120.592ZM218.991 127V110.2H222.567V116.872H229.767V110.2H233.343V127H229.767V119.848H222.567V127H218.991ZM237.225 127V110.2H240.801V116.872H248.001V110.2H251.577V127H248.001V119.848H240.801V127H237.225ZM255.46 127V110.2H259.036V116.2H261.436C263.724 116.2 265.412 116.696 266.5 117.688C267.588 118.664 268.132 119.968 268.132 121.6C268.132 123.232 267.588 124.544 266.5 125.536C265.412 126.512 263.724 127 261.436 127H255.46ZM259.036 124.024H261.076C262.356 124.024 263.252 123.808 263.764 123.376C264.292 122.944 264.556 122.352 264.556 121.6C264.556 120.848 264.292 120.256 263.764 119.824C263.252 119.392 262.356 119.176 261.076 119.176H259.036V124.024ZM269.836 127V110.2H273.436V127H269.836ZM277.28 127V110.2H288.992V113.176H280.88V116.92H288.272V119.8H280.88V124.024H288.992V127H277.28ZM48.76 159.288C47.304 159.288 46 159 44.848 158.424C43.712 157.832 42.816 156.912 42.16 155.664C41.52 154.4 41.2 152.752 41.2 150.72V150.24C41.2 148.768 41.392 147.512 41.776 146.472C42.16 145.416 42.696 144.552 43.384 143.88C44.088 143.208 44.896 142.712 45.808 142.392C46.72 142.072 47.704 141.912 48.76 141.912C49.704 141.912 50.584 142.032 51.4 142.272C52.232 142.496 52.968 142.84 53.608 143.304C54.248 143.768 54.76 144.368 55.144 145.104C55.544 145.84 55.776 146.704 55.84 147.696H52.096C51.92 146.752 51.536 146.056 50.944 145.608C50.352 145.16 49.624 144.936 48.76 144.936C48.088 144.936 47.464 145.104 46.888 145.44C46.312 145.76 45.84 146.304 45.472 147.072C45.12 147.84 44.944 148.896 44.944 150.24V150.72C44.944 151.776 45.056 152.664 45.28 153.384C45.504 154.088 45.8 154.656 46.168 155.088C46.536 155.504 46.944 155.808 47.392 156C47.84 156.176 48.296 156.264 48.76 156.264C49.672 156.264 50.424 156.032 51.016 155.568C51.608 155.088 51.968 154.4 52.096 153.504H55.84C55.76 154.544 55.528 155.44 55.144 156.192C54.76 156.928 54.256 157.528 53.632 157.992C53.008 158.44 52.28 158.768 51.448 158.976C50.616 159.184 49.72 159.288 48.76 159.288ZM58.7253 159V142.2H62.3013V149.04H63.7413L69.1172 142.2H73.0773L66.5013 150.144L73.3173 159H69.1172L63.7413 151.68H62.3013V159H58.7253ZM75.7643 159V142.2H79.3403V153.36L86.6603 142.2H90.1163V159H86.5403V147.84L79.1963 159H75.7643ZM92.5347 162.12V156.024H94.4067C94.6467 155.464 94.8467 154.792 95.0067 154.008C95.1827 153.224 95.3187 152.384 95.4147 151.488C95.5107 150.592 95.5747 149.68 95.6067 148.752C95.6547 147.808 95.6787 146.896 95.6787 146.016V142.2H107.487V156.024H109.311V162.12H106.143V159H95.7507V162.12H92.5347ZM97.8867 156.024H103.911V145.176H99.0867V146.496C99.0867 148.704 98.9747 150.568 98.7507 152.088C98.5427 153.592 98.2547 154.904 97.8867 156.024ZM111.975 159V142.2H115.551V149.04H116.991L122.367 142.2H126.327L119.751 150.144L126.567 159H122.367L116.991 151.68H115.551V159H111.975ZM129.014 159V142.2H132.59V153.36L139.91 142.2H143.366V159H139.79V147.84L132.446 159H129.014Z" fill="white"/>
<path opacity="0.7" d="M41.6 190V178.8H50.4V190H48.896V180.112H43.104V190H41.6ZM53.28 193.2V181.52H54.592V183.12C54.88 182.555 55.28 182.123 55.792 181.824C56.3147 181.515 56.9173 181.36 57.6 181.36C58.6667 181.36 59.52 181.712 60.16 182.416C60.8 183.109 61.12 184.144 61.12 185.52V185.84C61.12 186.8 60.9707 187.6 60.672 188.24C60.384 188.88 59.9733 189.36 59.44 189.68C58.9173 190 58.304 190.16 57.6 190.16C56.8747 190.16 56.2667 190 55.776 189.68C55.296 189.36 54.9333 188.96 54.688 188.48V193.2H53.28ZM57.28 188.912C57.9733 188.912 58.5493 188.651 59.008 188.128C59.4773 187.605 59.712 186.843 59.712 185.84V185.52C59.712 184.592 59.4773 183.877 59.008 183.376C58.5493 182.864 57.9733 182.608 57.28 182.608C56.768 182.608 56.3147 182.715 55.92 182.928C55.536 183.141 55.232 183.435 55.008 183.808C54.7947 184.171 54.688 184.581 54.688 185.04V186.32C54.688 186.832 54.7947 187.285 55.008 187.68C55.232 188.064 55.536 188.368 55.92 188.592C56.3147 188.805 56.768 188.912 57.28 188.912ZM63.1238 190V181.52H64.5318V187.92L68.9158 181.52H70.3238V190H68.9158V183.6L64.5318 190H63.1238ZM79.7694 190.16C79.0654 190.16 78.4574 190.059 77.9454 189.856C77.4334 189.653 77.0334 189.36 76.7454 188.976C76.4574 188.592 76.292 188.133 76.2494 187.6H77.6574C77.7107 187.877 77.828 188.112 78.0094 188.304C78.1907 188.496 78.4307 188.64 78.7294 188.736C79.028 188.832 79.3747 188.88 79.7694 188.88C80.5054 188.88 81.0387 188.757 81.3694 188.512C81.7107 188.256 81.8814 187.952 81.8814 187.6C81.8814 187.184 81.7427 186.859 81.4654 186.624C81.188 186.379 80.708 186.256 80.0254 186.256H78.5694V185.104H79.9294C80.516 185.104 80.932 184.992 81.1774 184.768C81.4334 184.544 81.5614 184.229 81.5614 183.824C81.5614 183.504 81.412 183.227 81.1134 182.992C80.8147 182.757 80.3667 182.64 79.7694 182.64C79.1187 182.64 78.644 182.747 78.3454 182.96C78.0574 183.163 77.8814 183.456 77.8174 183.84H76.4094C76.452 183.36 76.612 182.933 76.8894 182.56C77.1667 182.187 77.5507 181.893 78.0414 181.68C78.532 181.467 79.108 181.36 79.7694 181.36C80.8574 181.36 81.6627 181.589 82.1854 182.048C82.708 182.507 82.9694 183.099 82.9694 183.824C82.9694 184.229 82.868 184.587 82.6654 184.896C82.4627 185.195 82.1374 185.429 81.6894 185.6C82.2867 185.76 82.7027 186.016 82.9374 186.368C83.172 186.72 83.2894 187.131 83.2894 187.6C83.2894 188.059 83.156 188.485 82.8894 188.88C82.6227 189.264 82.228 189.573 81.7054 189.808C81.1934 190.043 80.548 190.16 79.7694 190.16ZM87.7116 190.16C87.093 190.16 86.565 190.048 86.1276 189.824C85.701 189.589 85.3756 189.275 85.1516 188.88C84.9276 188.475 84.8156 188.021 84.8156 187.52C84.8156 186.677 85.061 186.069 85.5516 185.696C86.053 185.323 86.7676 185.136 87.6956 185.136H90.4476V184.56C90.4476 183.835 90.2823 183.333 89.9516 183.056C89.6316 182.779 89.1463 182.64 88.4956 182.64C87.8876 182.64 87.445 182.757 87.1676 182.992C86.8903 183.216 86.7356 183.472 86.7036 183.76H85.2956C85.3276 183.301 85.4823 182.896 85.7596 182.544C86.037 182.181 86.4156 181.893 86.8956 181.68C87.3756 181.467 87.9356 181.36 88.5756 181.36C89.2476 181.36 89.829 181.467 90.3196 181.68C90.8103 181.883 91.189 182.208 91.4556 182.656C91.7223 183.093 91.8556 183.675 91.8556 184.4V187.84C91.8556 188.288 91.8556 188.683 91.8556 189.024C91.8663 189.355 91.893 189.68 91.9356 190H90.7036C90.6716 189.755 90.6503 189.525 90.6396 189.312C90.629 189.088 90.6236 188.837 90.6236 188.56C90.3996 189.008 90.037 189.387 89.5356 189.696C89.0343 190.005 88.4263 190.16 87.7116 190.16ZM88.0156 188.88C88.4636 188.88 88.869 188.8 89.2316 188.64C89.605 188.48 89.8983 188.245 90.1116 187.936C90.3356 187.627 90.4476 187.248 90.4476 186.8V186.224H87.9356C87.413 186.224 87.0023 186.331 86.7036 186.544C86.405 186.747 86.2556 187.072 86.2556 187.52C86.2556 187.915 86.3943 188.24 86.6716 188.496C86.9596 188.752 87.4076 188.88 88.0156 188.88ZM94.3425 190V181.52H95.7505V185.072H96.8705L100.039 181.52H101.703L98.0225 185.584L101.863 190H100.071L96.8705 186.288H95.7505V190H94.3425ZM105.805 190.16C105.187 190.16 104.659 190.048 104.221 189.824C103.795 189.589 103.469 189.275 103.245 188.88C103.021 188.475 102.909 188.021 102.909 187.52C102.909 186.677 103.155 186.069 103.645 185.696C104.147 185.323 104.861 185.136 105.789 185.136H108.541V184.56C108.541 183.835 108.376 183.333 108.045 183.056C107.725 182.779 107.24 182.64 106.589 182.64C105.981 182.64 105.539 182.757 105.261 182.992C104.984 183.216 104.829 183.472 104.797 183.76H103.389C103.421 183.301 103.576 182.896 103.853 182.544C104.131 182.181 104.509 181.893 104.989 181.68C105.469 181.467 106.029 181.36 106.669 181.36C107.341 181.36 107.923 181.467 108.413 181.68C108.904 181.883 109.283 182.208 109.549 182.656C109.816 183.093 109.949 183.675 109.949 184.4V187.84C109.949 188.288 109.949 188.683 109.949 189.024C109.96 189.355 109.987 189.68 110.029 190H108.797C108.765 189.755 108.744 189.525 108.733 189.312C108.723 189.088 108.717 188.837 108.717 188.56C108.493 189.008 108.131 189.387 107.629 189.696C107.128 190.005 106.52 190.16 105.805 190.16ZM106.109 188.88C106.557 188.88 106.963 188.8 107.325 188.64C107.699 188.48 107.992 188.245 108.205 187.936C108.429 187.627 108.541 187.248 108.541 186.8V186.224H106.029C105.507 186.224 105.096 186.331 104.797 186.544C104.499 186.747 104.349 187.072 104.349 187.52C104.349 187.915 104.488 188.24 104.765 188.496C105.053 188.752 105.501 188.88 106.109 188.88ZM115.316 190.16C114.612 190.16 114.004 190.059 113.492 189.856C112.98 189.653 112.58 189.36 112.292 188.976C112.004 188.592 111.839 188.133 111.796 187.6H113.204C113.258 187.877 113.375 188.112 113.556 188.304C113.738 188.496 113.978 188.64 114.276 188.736C114.575 188.832 114.922 188.88 115.316 188.88C116.052 188.88 116.586 188.757 116.916 188.512C117.258 188.256 117.428 187.952 117.428 187.6C117.428 187.184 117.29 186.859 117.012 186.624C116.735 186.379 116.255 186.256 115.572 186.256H114.116V185.104H115.476C116.063 185.104 116.479 184.992 116.724 184.768C116.98 184.544 117.108 184.229 117.108 183.824C117.108 183.504 116.959 183.227 116.66 182.992C116.362 182.757 115.914 182.64 115.316 182.64C114.666 182.64 114.191 182.747 113.892 182.96C113.604 183.163 113.428 183.456 113.364 183.84H111.956C111.999 183.36 112.159 182.933 112.436 182.56C112.714 182.187 113.098 181.893 113.588 181.68C114.079 181.467 114.655 181.36 115.316 181.36C116.404 181.36 117.21 181.589 117.732 182.048C118.255 182.507 118.516 183.099 118.516 183.824C118.516 184.229 118.415 184.587 118.212 184.896C118.01 185.195 117.684 185.429 117.236 185.6C117.834 185.76 118.25 186.016 118.484 186.368C118.719 186.72 118.836 187.131 118.836 187.6C118.836 188.059 118.703 188.485 118.436 188.88C118.17 189.264 117.775 189.573 117.252 189.808C116.74 190.043 116.095 190.16 115.316 190.16ZM124.363 190.16C123.648 190.16 122.976 190.005 122.347 189.696C121.728 189.387 121.227 188.912 120.843 188.272C120.469 187.632 120.283 186.821 120.283 185.84V185.52C120.283 184.581 120.464 183.808 120.827 183.2C121.189 182.581 121.669 182.123 122.267 181.824C122.864 181.515 123.509 181.36 124.203 181.36C125.451 181.36 126.416 181.701 127.099 182.384C127.781 183.067 128.123 184.032 128.123 185.28V186.176H121.691C121.691 186.837 121.824 187.365 122.091 187.76C122.368 188.155 122.709 188.443 123.115 188.624C123.531 188.795 123.947 188.88 124.363 188.88C125.003 188.88 125.493 188.773 125.835 188.56C126.187 188.347 126.437 188.053 126.587 187.68H127.963C127.792 188.491 127.371 189.109 126.699 189.536C126.037 189.952 125.259 190.16 124.363 190.16ZM124.283 182.64C123.845 182.64 123.429 182.725 123.035 182.896C122.64 183.056 122.315 183.312 122.059 183.664C121.813 184.016 121.691 184.469 121.691 185.024H126.795C126.784 184.437 126.661 183.973 126.427 183.632C126.203 183.28 125.904 183.029 125.531 182.88C125.157 182.72 124.741 182.64 124.283 182.64ZM134.124 193.2V181.52H135.436V183.12C135.724 182.555 136.124 182.123 136.636 181.824C137.158 181.515 137.761 181.36 138.444 181.36C139.51 181.36 140.364 181.712 141.004 182.416C141.644 183.109 141.964 184.144 141.964 185.52V185.84C141.964 186.8 141.814 187.6 141.516 188.24C141.228 188.88 140.817 189.36 140.284 189.68C139.761 190 139.148 190.16 138.444 190.16C137.718 190.16 137.11 190 136.62 189.68C136.14 189.36 135.777 188.96 135.532 188.48V193.2H134.124ZM138.124 188.912C138.817 188.912 139.393 188.651 139.852 188.128C140.321 187.605 140.556 186.843 140.556 185.84V185.52C140.556 184.592 140.321 183.877 139.852 183.376C139.393 182.864 138.817 182.608 138.124 182.608C137.612 182.608 137.158 182.715 136.764 182.928C136.38 183.141 136.076 183.435 135.852 183.808C135.638 184.171 135.532 184.581 135.532 185.04V186.32C135.532 186.832 135.638 187.285 135.852 187.68C136.076 188.064 136.38 188.368 136.764 188.592C137.158 188.805 137.612 188.912 138.124 188.912ZM147.488 190.16C146.773 190.16 146.101 190.005 145.472 189.696C144.853 189.387 144.352 188.912 143.968 188.272C143.594 187.632 143.408 186.821 143.408 185.84V185.52C143.408 184.581 143.589 183.808 143.952 183.2C144.314 182.581 144.794 182.123 145.392 181.824C145.989 181.515 146.634 181.36 147.328 181.36C148.576 181.36 149.541 181.701 150.224 182.384C150.906 183.067 151.248 184.032 151.248 185.28V186.176H144.816C144.816 186.837 144.949 187.365 145.216 187.76C145.493 188.155 145.834 188.443 146.24 188.624C146.656 188.795 147.072 188.88 147.488 188.88C148.128 188.88 148.618 188.773 148.96 188.56C149.312 188.347 149.562 188.053 149.712 187.68H151.088C150.917 188.491 150.496 189.109 149.824 189.536C149.162 189.952 148.384 190.16 147.488 190.16ZM147.408 182.64C146.97 182.64 146.554 182.725 146.16 182.896C145.765 183.056 145.44 183.312 145.184 183.664C144.938 184.016 144.816 184.469 144.816 185.024H149.92C149.909 184.437 149.786 183.973 149.552 183.632C149.328 183.28 149.029 183.029 148.656 182.88C148.282 182.72 147.866 182.64 147.408 182.64ZM153.249 190V181.52H154.753L157.777 186.8L160.801 181.52H162.209V190H160.801V183.84L158.289 188.16H157.169L154.657 183.84V190H153.249ZM168.284 190.16C167.57 190.16 166.898 190.005 166.268 189.696C165.65 189.376 165.148 188.896 164.764 188.256C164.391 187.616 164.204 186.811 164.204 185.84V185.52C164.204 184.603 164.391 183.835 164.764 183.216C165.148 182.597 165.65 182.133 166.268 181.824C166.898 181.515 167.57 181.36 168.284 181.36C169.01 181.36 169.682 181.515 170.3 181.824C170.919 182.133 171.415 182.597 171.788 183.216C172.172 183.835 172.364 184.603 172.364 185.52V185.84C172.364 186.811 172.172 187.616 171.788 188.256C171.415 188.896 170.919 189.376 170.3 189.696C169.682 190.005 169.01 190.16 168.284 190.16ZM168.284 188.88C168.722 188.88 169.138 188.784 169.532 188.592C169.938 188.389 170.268 188.064 170.524 187.616C170.791 187.168 170.924 186.576 170.924 185.84V185.52C170.924 184.837 170.791 184.288 170.524 183.872C170.268 183.445 169.938 183.136 169.532 182.944C169.138 182.741 168.722 182.64 168.284 182.64C167.858 182.64 167.442 182.741 167.036 182.944C166.631 183.136 166.295 183.445 166.028 183.872C165.772 184.288 165.644 184.837 165.644 185.52V185.84C165.644 186.576 165.772 187.168 166.028 187.616C166.295 188.064 166.631 188.389 167.036 188.592C167.442 188.784 167.858 188.88 168.284 188.88ZM174.358 190V181.52H175.766V185.056H180.15V181.52H181.558V190H180.15V186.304H175.766V190H174.358ZM186.06 190V182.768H183.164V181.52H190.364V182.768H187.468V190H186.06ZM194.071 190.16C193.452 190.16 192.924 190.048 192.487 189.824C192.06 189.589 191.735 189.275 191.511 188.88C191.287 188.475 191.175 188.021 191.175 187.52C191.175 186.677 191.42 186.069 191.911 185.696C192.412 185.323 193.127 185.136 194.055 185.136H196.807V184.56C196.807 183.835 196.642 183.333 196.311 183.056C195.991 182.779 195.506 182.64 194.855 182.64C194.247 182.64 193.804 182.757 193.527 182.992C193.25 183.216 193.095 183.472 193.063 183.76H191.655C191.687 183.301 191.842 182.896 192.119 182.544C192.396 182.181 192.775 181.893 193.255 181.68C193.735 181.467 194.295 181.36 194.935 181.36C195.607 181.36 196.188 181.467 196.679 181.68C197.17 181.883 197.548 182.208 197.815 182.656C198.082 183.093 198.215 183.675 198.215 184.4V187.84C198.215 188.288 198.215 188.683 198.215 189.024C198.226 189.355 198.252 189.68 198.295 190H197.063C197.031 189.755 197.01 189.525 196.999 189.312C196.988 189.088 196.983 188.837 196.983 188.56C196.759 189.008 196.396 189.387 195.895 189.696C195.394 190.005 194.786 190.16 194.071 190.16ZM194.375 188.88C194.823 188.88 195.228 188.8 195.591 188.64C195.964 188.48 196.258 188.245 196.471 187.936C196.695 187.627 196.807 187.248 196.807 186.8V186.224H194.295C193.772 186.224 193.362 186.331 193.063 186.544C192.764 186.747 192.615 187.072 192.615 187.52C192.615 187.915 192.754 188.24 193.031 188.496C193.319 188.752 193.767 188.88 194.375 188.88Z" fill="white"/>
</svg>
