<svg width="30" height="30" viewBox="0 0 30 30" fill="none" xmlns="http://www.w3.org/2000/svg">
<path d="M28.2141 21.1067C28.1914 22.1669 27.9905 23.2173 27.6178 24.2094C27.3163 24.9876 26.8561 25.6944 26.2662 26.2844C25.6763 26.8745 24.9697 27.3349 24.1919 27.6364C23.1968 28.0061 22.15 28.2071 21.0869 28.233C19.5117 28.3043 18.9931 28.3238 14.9806 28.3238C10.968 28.3238 10.443 28.3238 8.87424 28.233C7.81115 28.2071 6.76102 28.0061 5.76599 27.6364C4.98812 27.3382 4.28155 26.8778 3.6949 26.2877C3.10501 25.6976 2.64801 24.9941 2.34659 24.2159C1.9771 23.2206 1.77615 22.1669 1.75022 21.1067C1.67891 19.5115 1.65946 19.0349 1.65946 14.9984C1.65946 10.9619 1.65946 10.4852 1.75022 8.89009C1.77615 7.82989 1.9771 6.77942 2.34659 5.78731C2.63829 5.00594 3.09853 4.29915 3.6949 3.71555C4.28479 3.12223 4.99784 2.66832 5.78544 2.38301C6.78047 2.01016 7.83384 1.80914 8.89369 1.78645C10.4818 1.70863 10.9648 1.69567 15 1.69567C19.0352 1.69567 19.5117 1.69567 21.1063 1.78645C22.1662 1.80914 23.2163 2.01016 24.2113 2.38301C24.9924 2.67481 25.699 3.1352 26.2824 3.73176C26.882 4.31536 27.3455 5.0254 27.6372 5.81001C28.0099 6.80212 28.2109 7.85259 28.2336 8.91278C28.3114 10.5079 28.3243 10.9845 28.3243 15.0211C28.3243 19.0576 28.3049 19.5115 28.2174 21.1034L28.2141 21.1067ZM29.9092 8.81552C29.8801 7.57052 29.6435 6.34173 29.2124 5.17454C28.8364 4.1727 28.2465 3.26813 27.4816 2.51918C26.7329 1.75403 25.8254 1.16395 24.8239 0.787853C23.6571 0.353399 22.4255 0.116719 21.1841 0.0907814C19.583 0 19.0709 0 15 0C10.9291 0 10.3976 0 8.8159 0.0907814C7.57131 0.119961 6.33967 0.353399 5.1761 0.787853C4.17459 1.1607 3.26707 1.75403 2.51837 2.51918C1.75346 3.26813 1.16357 4.17594 0.787597 5.17454C0.350043 6.33848 0.11344 7.57052 0.0907519 8.81228C0.0194468 10.4107 0 10.9262 0 14.9984C0 19.0706 0 19.5828 0.0907519 21.1845C0.116681 22.4295 0.353284 23.6615 0.787597 24.8255C1.17329 25.8208 1.76318 26.7254 2.51837 27.4808C3.27355 28.2362 4.17783 28.8263 5.1761 29.2121C6.34291 29.6498 7.57131 29.8865 8.8159 29.9092C10.417 29.9805 10.9226 30 15 30C19.0774 30 19.583 30 21.1841 29.9092C22.4287 29.8833 23.6603 29.6466 24.8239 29.2121C25.8189 28.8263 26.7232 28.2362 27.4816 27.4808C28.2368 26.7254 28.8267 25.8208 29.2124 24.8255C29.6467 23.6583 29.8833 22.4295 29.9092 21.1845C29.9806 19.5861 30 19.0771 30 14.9984C30 10.9197 29.9806 10.4139 29.9092 8.81228V8.81552Z" fill="#101010"/>
<path d="M15.0003 20.0008C14.0118 20.0008 13.0427 19.709 12.2194 19.161C11.3962 18.6131 10.7544 17.8317 10.3752 16.9174C9.99602 16.0031 9.89554 14.9981 10.0868 14.0254C10.278 13.056 10.7544 12.1611 11.4545 11.4641C12.1546 10.767 13.0459 10.2872 14.015 10.0926C14.9841 9.89809 15.9921 9.9986 16.9061 10.3747C17.8201 10.754 18.6012 11.3927 19.1522 12.2163C19.7032 13.0398 19.9949 14.0059 19.9949 14.9948C19.9949 16.3209 19.4699 17.5918 18.5332 18.5288C17.5965 19.4658 16.326 19.9943 15.0003 19.9975V20.0008ZM15.0003 7.29785C13.477 7.29785 11.9861 7.74852 10.7156 8.59473C9.44827 9.44094 8.45972 10.6438 7.87631 12.0541C7.29291 13.4613 7.14057 15.0143 7.43552 16.5089C7.7337 18.0036 8.4662 19.3783 9.5455 20.4579C10.6248 21.5376 11.9958 22.2703 13.4932 22.5686C14.9874 22.8669 16.5399 22.7112 17.9465 22.1276C19.3564 21.544 20.5589 20.5552 21.4048 19.2875C22.2508 18.0198 22.7013 16.5284 22.7013 15.0045C22.7013 12.962 21.891 11.0037 20.4455 9.55766C18.9999 8.11164 17.0423 7.30109 15.0003 7.30109V7.29785Z" fill="#101010"/>
<path d="M24.8081 6.99313C24.8081 7.34653 24.7043 7.69344 24.5066 7.98848C24.3089 8.28352 24.0302 8.51372 23.7028 8.64665C23.3755 8.78282 23.0157 8.81848 22.6689 8.74715C22.3221 8.67907 22.0012 8.50723 21.7517 8.25758C21.5021 8.00793 21.3303 7.68696 21.2622 7.34004C21.1942 6.99313 21.2298 6.63324 21.3627 6.30578C21.4989 5.97832 21.729 5.69949 22.0207 5.50172C22.3156 5.30395 22.6624 5.2002 23.0157 5.2002C23.4922 5.2002 23.9459 5.38824 24.283 5.72543C24.6201 6.06262 24.8081 6.51653 24.8081 6.99313Z" fill="#101010"/>
</svg>
