<svg width="630" height="142" viewBox="0 0 630 142" fill="none" xmlns="http://www.w3.org/2000/svg">
<path d="M91.3468 109.499C91.3464 108.254 91.4688 107.013 91.7124 105.793C91.7768 105.459 91.9298 105.148 92.155 104.895C92.3803 104.642 92.6693 104.456 92.9911 104.356C93.313 104.257 93.6554 104.248 93.9819 104.33C94.3084 104.413 94.6066 104.583 94.8446 104.824L116.96 127.216C117.309 127.57 117.783 127.769 118.278 127.769C118.772 127.769 119.246 127.57 119.595 127.216L127.399 119.31C127.572 119.135 127.71 118.928 127.804 118.699C127.898 118.47 127.947 118.224 127.947 117.976C127.947 117.728 127.898 117.483 127.804 117.254C127.71 117.025 127.572 116.817 127.399 116.642L105.284 94.2498C105.047 94.0087 104.879 93.7071 104.799 93.3771C104.718 93.0472 104.727 92.7013 104.826 92.3762C104.924 92.0511 105.107 91.7592 105.356 91.5314C105.606 91.3037 105.911 91.1486 106.241 91.0829C107.446 90.8378 108.672 90.7154 109.901 90.7173H139.797C140.04 90.7173 140.281 90.6687 140.506 90.5743C140.731 90.4798 140.935 90.3414 141.107 90.1669C141.279 89.9925 141.415 89.7854 141.508 89.5575C141.6 89.3297 141.648 89.0856 141.647 88.8391V77.6432C141.648 77.3968 141.6 77.1526 141.508 76.9248C141.415 76.6969 141.279 76.4899 141.107 76.3154C140.935 76.1409 140.731 76.0025 140.506 75.9081C140.281 75.8136 140.04 75.765 139.797 75.765H109.905C105.529 75.7626 101.196 76.6335 97.1527 78.328C93.1094 80.0224 89.4357 82.5072 86.3414 85.6401C83.2472 88.7731 80.7932 92.4929 79.1197 96.5868C77.4462 100.681 76.586 105.068 76.5884 109.499V139.769C76.5884 140.267 76.7838 140.745 77.1317 141.097C77.4796 141.45 77.9514 141.647 78.4433 141.647H89.5009C89.744 141.648 89.9849 141.6 90.2097 141.506C90.4345 141.412 90.6387 141.274 90.8107 141.1C90.9826 140.926 91.1189 140.719 91.2117 140.492C91.3045 140.264 91.3519 140.02 91.3513 139.774L91.3468 109.499Z" fill="#7939FF"/>
<path d="M32.1551 90.7142C33.3983 90.7125 34.6385 90.8349 35.8573 91.0797C36.1913 91.1457 36.5011 91.3008 36.7539 91.5288C37.0066 91.7567 37.1928 92.0488 37.2927 92.3741C37.3926 92.6994 37.4024 93.0456 37.3211 93.376C37.2397 93.7064 37.0704 94.0086 36.8309 94.2505L14.4344 116.638C14.0804 116.992 13.8816 117.471 13.8816 117.972C13.8816 118.472 14.0804 118.952 14.4344 119.306L22.328 127.219C22.682 127.573 23.1621 127.772 23.6627 127.772C24.1632 127.772 24.6433 127.573 24.9973 127.219L47.3939 104.832C47.6355 104.593 47.9375 104.423 48.2677 104.342C48.5979 104.26 48.9441 104.269 49.2694 104.369C49.5947 104.468 49.8871 104.654 50.1153 104.906C50.3436 105.158 50.4993 105.467 50.5659 105.8C50.8088 107.021 50.9313 108.262 50.9316 109.506V139.77C50.9316 140.268 51.1295 140.745 51.4818 141.097C51.8341 141.45 52.312 141.647 52.8102 141.647H64.0085C64.5059 141.646 64.9825 141.448 65.3338 141.096C65.6852 140.744 65.8825 140.267 65.8825 139.77V109.492C65.8849 105.063 65.0139 100.676 63.3194 96.5835C61.6249 92.4908 59.14 88.772 56.0069 85.6397C52.8737 82.5074 49.1537 80.0231 45.0595 78.3288C40.9653 76.6344 36.5772 75.7632 32.1459 75.765H1.87857C1.38034 75.765 0.90252 75.9629 0.55022 76.315C0.19792 76.6672 0 77.1448 0 77.6428L0 88.841C0 89.0876 0.0485906 89.3318 0.142998 89.5596C0.237404 89.7874 0.375779 89.9944 0.55022 90.1688C0.724661 90.3432 0.931753 90.4815 1.15967 90.5758C1.38759 90.6702 1.63187 90.7188 1.87857 90.7188L32.1551 90.7142Z" fill="#7939FF"/>
<path d="M50.9337 32.1506C50.9331 33.3935 50.8107 34.6334 50.5681 35.8524C50.5021 36.1863 50.3469 36.4961 50.1189 36.7488C49.8909 37.0015 49.5987 37.1877 49.2733 37.2875C48.948 37.3874 48.6016 37.3972 48.2711 37.3159C47.9406 37.2346 47.6383 37.0652 47.3964 36.8258L25.003 14.4324C24.649 14.0785 24.169 13.8797 23.6685 13.8797C23.168 13.8797 22.688 14.0785 22.3341 14.4324L14.4232 22.3249C14.0694 22.6789 13.8706 23.1589 13.8706 23.6594C13.8706 24.1599 14.0694 24.6399 14.4232 24.9938L36.8167 47.3873C37.0561 47.6292 37.2254 47.9315 37.3067 48.262C37.388 48.5925 37.3782 48.9388 37.2784 49.2642C37.1785 49.5896 36.9923 49.8818 36.7396 50.1098C36.4869 50.3378 36.1771 50.493 35.8432 50.5589C34.6242 50.8015 33.3844 50.924 32.1415 50.9245H1.87833C1.6309 50.9245 1.3859 50.9734 1.15742 51.0684C0.928931 51.1634 0.721461 51.3025 0.546924 51.4779C0.372387 51.6533 0.234223 51.8614 0.140368 52.0904C0.0465134 52.3193 -0.00118182 52.5646 2.22409e-05 52.812V64.0087C0.00123238 64.5061 0.199659 64.9827 0.551779 65.3339C0.903899 65.6852 1.38096 65.8825 1.87833 65.8825H32.1506C36.5808 65.8843 40.968 65.013 45.0614 63.3184C49.1547 61.6239 52.874 59.1393 56.0066 56.0066C59.1393 52.874 61.6239 49.1547 63.3184 45.0614C65.013 40.968 65.8843 36.5808 65.8825 32.1506V1.87831C65.8825 1.38094 65.6852 0.903877 65.3339 0.551757C64.9827 0.199637 64.5061 0.00121014 64.0087 0L52.812 0C52.3138 0 51.8361 0.197893 51.4838 0.550144C51.1316 0.902395 50.9337 1.38015 50.9337 1.87831V32.1506Z" fill="#7939FF"/>
<path d="M109.903 50.9337C108.674 50.9334 107.448 50.8109 106.243 50.5681C105.913 50.5029 105.606 50.3479 105.356 50.1198C105.106 49.8917 104.922 49.5991 104.824 49.2732C104.726 48.9474 104.717 48.6005 104.798 48.2699C104.88 47.9393 105.048 47.6374 105.286 47.3964L127.4 25.003C127.573 24.828 127.711 24.6201 127.805 24.3911C127.899 24.1621 127.947 23.9165 127.947 23.6685C127.947 23.4205 127.899 23.175 127.805 22.946C127.711 22.7169 127.573 22.509 127.4 22.334L119.601 14.4232C119.252 14.0693 118.778 13.8706 118.284 13.8706C117.789 13.8706 117.315 14.0693 116.966 14.4232L94.8524 36.8167C94.6135 37.0561 94.315 37.2254 93.9886 37.3067C93.6622 37.388 93.3202 37.3782 92.9989 37.2784C92.6776 37.1785 92.389 36.9923 92.1639 36.7396C91.9388 36.4869 91.7855 36.1771 91.7204 35.8432C91.4786 34.6246 91.3576 33.3845 91.3593 32.1415V1.87831C91.3593 1.63127 91.3112 1.38664 91.2177 1.15846C91.1242 0.930274 90.9872 0.723008 90.8145 0.548531C90.6417 0.374054 90.4367 0.235794 90.2112 0.141669C89.9856 0.0475448 89.7439 -0.00059553 89.5 5.56023e-06H78.4432C78.1996 5.56023e-06 77.9584 0.0485894 77.7334 0.142983C77.5084 0.237377 77.3039 0.375732 77.1316 0.550149C76.9594 0.724566 76.8228 0.931629 76.7296 1.15952C76.6364 1.3874 76.5884 1.63165 76.5884 1.87831V32.1506C76.5866 36.5812 77.4471 40.9688 79.1208 45.0624C80.7944 49.1561 83.2484 52.8755 86.3423 56.0083C89.4363 59.141 93.1096 61.6255 97.1523 63.3197C101.195 65.014 105.528 65.8849 109.903 65.8825H139.797C140.288 65.8825 140.758 65.685 141.105 65.3336C141.452 64.9823 141.647 64.5057 141.647 64.0087V52.812C141.648 52.5655 141.6 52.3214 141.508 52.0935C141.415 51.8657 141.279 51.6586 141.107 51.4841C140.935 51.3096 140.731 51.1712 140.506 51.0767C140.281 50.9823 140.04 50.9337 139.797 50.9337H109.903Z" fill="#7939FF"/>
<path d="M166.338 27.3536C166.317 26.9976 166.367 26.641 166.487 26.3048C166.606 25.9686 166.791 25.6596 167.032 25.396C167.296 25.1475 167.609 24.9557 167.95 24.8325C168.292 24.7093 168.655 24.6573 169.018 24.6798H232.326C232.679 24.6661 233.031 24.7247 233.36 24.852C233.689 24.9793 233.989 25.1726 234.241 25.4198C234.718 25.9479 234.968 26.6429 234.934 27.3536V36.9029C234.966 37.635 234.718 38.3518 234.241 38.9083C233.988 39.1525 233.688 39.3421 233.358 39.4653C233.029 39.5885 232.678 39.6427 232.326 39.6245H209.142V114.253C209.17 114.609 209.123 114.968 209.003 115.305C208.884 115.642 208.695 115.951 208.448 116.21C208.176 116.462 207.856 116.656 207.506 116.779C207.156 116.903 206.784 116.953 206.414 116.926H194.667C194.308 116.948 193.948 116.896 193.611 116.773C193.273 116.65 192.964 116.458 192.705 116.21C192.458 115.951 192.269 115.642 192.149 115.305C192.03 114.968 191.983 114.609 192.011 114.253V39.6722H169.018C168.663 39.6909 168.308 39.637 167.974 39.5139C167.641 39.3907 167.337 39.2009 167.08 38.956C166.826 38.6898 166.629 38.3746 166.501 38.0298C166.374 37.6849 166.318 37.3177 166.338 36.9507V27.3536Z" fill="#282828"/>
<path d="M245.892 46.8341C250.037 39.6533 256.024 33.7038 263.238 29.5976C270.623 25.4654 278.948 23.2953 287.416 23.2953C295.883 23.2953 304.208 25.4654 311.593 29.5976C318.884 33.7772 324.926 39.8205 329.098 47.1051C333.27 54.3897 335.42 62.6522 335.328 71.0417C335.406 79.4176 333.233 87.6614 329.035 94.915C324.888 102.066 318.888 107.97 311.665 112.008C304.261 116.11 295.932 118.262 287.463 118.262C278.995 118.262 270.666 116.11 263.262 112.008C256.021 107.977 250.004 102.072 245.844 94.915C241.629 87.6661 239.439 79.422 239.503 71.0417C239.398 62.5444 241.606 54.1779 245.892 46.8341ZM260.726 86.2729C263.375 90.8793 267.218 94.6891 271.852 97.3024C276.617 99.9145 281.966 101.284 287.404 101.284C292.841 101.284 298.19 99.9145 302.956 97.3024C307.614 94.6848 311.481 90.8665 314.154 86.2467C316.827 81.627 318.207 76.3756 318.149 71.0417C318.232 65.6457 316.864 60.326 314.188 55.6363C311.511 50.9465 307.625 47.058 302.932 44.3752C298.181 41.7173 292.826 40.3214 287.38 40.3214C281.933 40.3214 276.578 41.7173 271.828 44.3752C267.193 47.0065 263.345 50.8217 260.678 55.4285C257.939 60.1719 256.542 65.5681 256.635 71.0417C256.593 76.3945 258.007 81.6583 260.726 86.2729Z" fill="#282828"/>
<path d="M419.069 25.3938C419.548 25.915 419.813 26.5967 419.811 27.3036V114.179C419.82 114.539 419.757 114.898 419.625 115.234C419.494 115.57 419.297 115.877 419.045 116.136C418.811 116.396 418.523 116.601 418.2 116.737C417.878 116.873 417.529 116.937 417.179 116.924H405.216C404.874 116.93 404.535 116.863 404.221 116.727C403.908 116.591 403.627 116.39 403.398 116.136C402.919 115.625 402.653 114.95 402.656 114.25V87.7509C399.466 89.1443 396.138 90.2005 392.727 90.9022C388.871 91.6321 384.951 91.976 381.027 91.9288C374.661 92.0671 368.367 90.5709 362.747 87.5838C357.546 84.6854 353.311 80.3275 350.569 75.0503C347.524 69.1515 346.01 62.585 346.166 55.9516V27.3036C346.106 26.6024 346.311 25.9041 346.74 25.346C346.95 25.0937 347.213 24.8917 347.511 24.7553C347.81 24.6189 348.135 24.5515 348.463 24.5582H360.426C360.794 24.5531 361.158 24.6248 361.496 24.7688C361.834 24.9127 362.138 25.1256 362.388 25.3938C362.652 25.6373 362.863 25.9327 363.007 26.2614C363.151 26.59 363.226 26.9449 363.226 27.3036V55.9516C363.133 59.5821 363.955 63.1777 365.618 66.4082C367.158 69.3318 369.542 71.727 372.461 73.2837C375.718 74.9372 379.335 75.7575 382.989 75.671C386.427 75.7288 389.858 75.3599 393.205 74.5729C396.497 73.7011 399.701 72.5263 402.776 71.0635V27.3036C402.771 26.5916 403.046 25.9059 403.541 25.3938C403.763 25.1348 404.038 24.9262 404.348 24.782C404.657 24.6379 404.994 24.5616 405.336 24.5582H417.299C417.636 24.565 417.969 24.6429 418.274 24.7869C418.579 24.9309 418.85 25.1377 419.069 25.3938Z" fill="#282828"/>
<path d="M517.114 25.1085C517.491 25.5264 517.688 26.0749 517.665 26.6364V114.968C517.682 115.239 517.643 115.511 517.548 115.766C517.453 116.022 517.305 116.254 517.114 116.448C516.911 116.632 516.673 116.774 516.414 116.864C516.155 116.955 515.881 116.992 515.607 116.973H502.471C502.209 116.992 501.945 116.955 501.697 116.864C501.45 116.773 501.224 116.632 501.036 116.448C500.854 116.249 500.714 116.015 500.623 115.761C500.533 115.507 500.494 115.237 500.509 114.968V87.5612H454.547V114.92C454.565 115.192 454.525 115.464 454.43 115.719C454.335 115.974 454.188 116.206 453.997 116.4C453.801 116.581 453.571 116.721 453.321 116.811C453.07 116.901 452.804 116.94 452.537 116.925H439.402C439.128 116.944 438.853 116.907 438.594 116.817C438.335 116.726 438.097 116.585 437.895 116.4C437.7 116.209 437.549 115.977 437.454 115.721C437.359 115.465 437.322 115.192 437.344 114.92V26.6364C437.326 26.3577 437.365 26.0781 437.46 25.8152C437.554 25.5523 437.702 25.3117 437.895 25.1085C438.095 24.9198 438.333 24.7738 438.592 24.6794C438.851 24.585 439.126 24.5442 439.402 24.5595H452.537C452.805 24.5493 453.072 24.5927 453.323 24.687C453.573 24.7813 453.803 24.9246 453.997 25.1085C454.374 25.5264 454.571 26.0749 454.547 26.6364V72.4971H500.509V26.6364C500.489 26.0796 500.676 25.535 501.036 25.1085C501.222 24.9205 501.447 24.7743 501.694 24.6796C501.942 24.585 502.207 24.544 502.471 24.5595H515.607C515.882 24.5442 516.158 24.585 516.417 24.6794C516.676 24.7738 516.913 24.9198 517.114 25.1085Z" fill="#282828"/>
<path d="M540.537 46.8341C544.696 39.6638 550.68 33.7175 557.883 29.5976C565.269 25.4654 573.594 23.2953 582.061 23.2953C590.528 23.2953 598.853 25.4654 606.238 29.5976C613.535 33.7723 619.584 39.8138 623.76 47.0991C627.937 54.3843 630.09 62.6494 629.997 71.0417C630.052 79.4241 627.855 87.668 623.633 94.915C619.486 102.066 613.486 107.97 606.262 112.008C598.858 116.11 590.529 118.262 582.061 118.262C573.592 118.262 565.263 116.11 557.859 112.008C550.641 107.964 544.642 102.061 540.489 94.915C536.274 87.6661 534.085 79.422 534.149 71.0417C534.044 62.5444 536.251 54.1779 540.537 46.8341ZM555.371 86.2729C558.027 90.8743 561.868 94.6826 566.497 97.3024C571.262 99.9145 576.612 101.284 582.049 101.284C587.486 101.284 592.835 99.9145 597.601 97.3024C602.265 94.6898 606.139 90.8733 608.816 86.2529C611.494 81.6325 612.876 76.3785 612.818 71.0417C612.865 65.663 611.475 60.3688 608.792 55.7033C606.11 51.0377 602.23 47.169 597.553 44.4945C592.804 41.8322 587.448 40.4338 582.001 40.4338C576.554 40.4338 571.198 41.8322 566.449 44.4945C561.786 47.1747 557.923 51.048 555.261 55.7147C552.599 60.3814 551.233 65.6724 551.304 71.0417C551.254 76.3924 552.66 81.6564 555.371 86.2729Z" fill="#282828"/>
</svg>
