<svg width="100" height="23" viewBox="0 0 100 23" fill="none" xmlns="http://www.w3.org/2000/svg">
<path d="M14.4995 17.3809C14.4994 17.1833 14.5188 16.9862 14.5575 16.7926C14.5677 16.7395 14.592 16.6902 14.6278 16.6501C14.6635 16.6099 14.7094 16.5803 14.7605 16.5645C14.8116 16.5487 14.8659 16.5473 14.9177 16.5604C14.9696 16.5735 15.0169 16.6006 15.0547 16.6388L18.565 20.1931C18.6205 20.2493 18.6957 20.2808 18.7742 20.2808C18.8526 20.2808 18.9279 20.2493 18.9834 20.1931L20.222 18.9382C20.2496 18.9104 20.2714 18.8774 20.2864 18.8411C20.3013 18.8047 20.309 18.7658 20.309 18.7264C20.309 18.687 20.3013 18.6481 20.2864 18.6117C20.2714 18.5754 20.2496 18.5424 20.222 18.5146L16.7117 14.9603C16.6741 14.9221 16.6475 14.8742 16.6347 14.8218C16.6219 14.7694 16.6234 14.7145 16.639 14.6629C16.6545 14.6113 16.6837 14.565 16.7232 14.5288C16.7628 14.4927 16.8113 14.4681 16.8636 14.4577C17.0548 14.4188 17.2495 14.3993 17.4446 14.3996H22.19C22.2286 14.3996 22.2668 14.3919 22.3025 14.3769C22.3382 14.3619 22.3706 14.34 22.3979 14.3123C22.4252 14.2846 22.4468 14.2517 22.4615 14.2155C22.4762 14.1794 22.4838 14.1406 22.4837 14.1015V12.3244C22.4838 12.2853 22.4762 12.2465 22.4615 12.2103C22.4468 12.1742 22.4252 12.1413 22.3979 12.1136C22.3706 12.0859 22.3382 12.0639 22.3025 12.049C22.2668 12.034 22.2286 12.0262 22.19 12.0262H17.4453C16.7507 12.0259 16.0628 12.1641 15.421 12.4331C14.7793 12.702 14.1961 13.0964 13.705 13.5937C13.2138 14.091 12.8243 14.6815 12.5587 15.3313C12.293 15.9811 12.1565 16.6776 12.1569 17.3809V22.1857C12.1569 22.2647 12.1879 22.3406 12.2431 22.3965C12.2983 22.4524 12.3732 22.4838 12.4513 22.4838H14.2065C14.2451 22.4839 14.2833 22.4763 14.319 22.4613C14.3547 22.4464 14.3871 22.4245 14.4144 22.3969C14.4417 22.3693 14.4633 22.3364 14.478 22.3003C14.4927 22.2642 14.5003 22.2255 14.5002 22.1864L14.4995 17.3809Z" fill="white"/>
<path d="M5.10398 14.3991C5.30131 14.3989 5.49818 14.4183 5.69165 14.4572C5.74465 14.4676 5.79383 14.4922 5.83395 14.5284C5.87407 14.5646 5.90362 14.611 5.91948 14.6626C5.93533 14.7142 5.93689 14.7692 5.92398 14.8216C5.91107 14.8741 5.88419 14.9221 5.84618 14.9604L2.29117 18.514C2.23499 18.5701 2.20343 18.6463 2.20343 18.7257C2.20343 18.8052 2.23499 18.8813 2.29117 18.9375L3.54413 20.1936C3.60032 20.2497 3.67652 20.2813 3.75598 20.2813C3.83543 20.2813 3.91164 20.2497 3.96783 20.1936L7.52284 16.64C7.56119 16.6021 7.60913 16.5752 7.66154 16.5622C7.71396 16.5493 7.76891 16.5508 7.82055 16.5665C7.87218 16.5823 7.91858 16.6118 7.95482 16.6518C7.99106 16.6918 8.01577 16.7409 8.02634 16.7938C8.0649 16.9875 8.08434 17.1845 8.08439 17.3819V22.1857C8.08439 22.2648 8.1158 22.3406 8.17172 22.3965C8.22764 22.4524 8.30349 22.4838 8.38257 22.4838H10.1601C10.239 22.4836 10.3147 22.4521 10.3705 22.3962C10.4262 22.3404 10.4575 22.2646 10.4575 22.1857V17.3798C10.4579 16.6767 10.3197 15.9804 10.0507 15.3308C9.78173 14.6811 9.38731 14.0908 8.88999 13.5937C8.39266 13.0965 7.80218 12.7021 7.15231 12.4332C6.50243 12.1642 5.8059 12.026 5.10253 12.0262H0.298186C0.219102 12.0262 0.143257 12.0576 0.0873366 12.1135C0.0314159 12.1694 0 12.2453 0 12.3243L0 14.1018C0 14.1409 0.0077128 14.1797 0.022698 14.2159C0.0376833 14.252 0.0596475 14.2849 0.0873366 14.3126C0.115026 14.3402 0.147897 14.3622 0.184075 14.3772C0.220252 14.3922 0.259027 14.3999 0.298186 14.3999L5.10398 14.3991Z" fill="white"/>
<path d="M8.08472 5.10327C8.08463 5.30056 8.06519 5.49736 8.02668 5.69086C8.01621 5.74386 7.99158 5.79303 7.95539 5.83314C7.9192 5.87325 7.87282 5.90281 7.82117 5.91866C7.76952 5.93451 7.71455 5.93606 7.66209 5.92316C7.60963 5.91025 7.56165 5.88337 7.52325 5.84537L3.96873 2.29085C3.91255 2.23468 3.83636 2.20313 3.75691 2.20313C3.67747 2.20313 3.60127 2.23468 3.54509 2.29085L2.2894 3.54364C2.23323 3.59982 2.20168 3.67601 2.20168 3.75546C2.20168 3.8349 2.23323 3.91109 2.2894 3.96728L5.84392 7.5218C5.88192 7.56019 5.9088 7.60818 5.92171 7.66064C5.93461 7.7131 5.93306 7.76807 5.91721 7.81972C5.90136 7.87136 5.8718 7.91775 5.83169 7.95394C5.79158 7.99012 5.74241 8.01476 5.68941 8.02523C5.49591 8.06374 5.29911 8.08318 5.10182 8.08327H0.298148C0.258872 8.08326 0.219984 8.09102 0.183717 8.1061C0.147449 8.12117 0.114518 8.14326 0.0868133 8.1711C0.059109 8.19894 0.0371782 8.23198 0.0222806 8.26832C0.00738308 8.30466 -0.00018759 8.34359 3.53031e-06 8.38286V10.1601C0.000195616 10.2391 0.0316919 10.3147 0.087584 10.3705C0.143476 10.4262 0.2192 10.4575 0.298148 10.4575H5.10327C5.80649 10.4578 6.50286 10.3195 7.1526 10.0506C7.80234 9.78158 8.3927 9.38719 8.88995 8.88995C9.38719 8.3927 9.78158 7.80234 10.0506 7.1526C10.3195 6.50286 10.4578 5.80649 10.4575 5.10327V0.298144C10.4575 0.219197 10.4262 0.143473 10.3705 0.0875805C10.3147 0.0316884 10.2391 0.000192086 10.1601 0L8.38286 0C8.30379 0 8.22795 0.0314115 8.17204 0.0873244C8.11613 0.143237 8.08472 0.219072 8.08472 0.298144V5.10327Z" fill="white"/>
<path d="M17.4449 8.08471C17.2499 8.08467 17.0553 8.06523 16.864 8.02668C16.8115 8.01633 16.7629 7.99174 16.7232 7.95553C16.6835 7.91933 16.6543 7.87288 16.6387 7.82115C16.6231 7.76942 16.6217 7.71438 16.6346 7.6619C16.6476 7.60942 16.6743 7.56149 16.7121 7.52325L20.2222 3.96873C20.2497 3.94096 20.2716 3.90795 20.2865 3.8716C20.3014 3.83525 20.3091 3.79627 20.3091 3.75691C20.3091 3.71754 20.3014 3.67857 20.2865 3.64222C20.2716 3.60587 20.2497 3.57286 20.2222 3.54509L18.9843 2.2894C18.9289 2.23323 18.8536 2.20168 18.7752 2.20168C18.6967 2.20168 18.6215 2.23323 18.566 2.2894L15.0559 5.84392C15.018 5.88192 14.9706 5.9088 14.9188 5.92171C14.867 5.93461 14.8127 5.93306 14.7617 5.91721C14.7107 5.90135 14.6649 5.8718 14.6292 5.83169C14.5934 5.79158 14.5691 5.74241 14.5588 5.68941C14.5204 5.49597 14.5012 5.29913 14.5015 5.10182V0.298145C14.5015 0.258931 14.4938 0.220102 14.479 0.183882C14.4641 0.147663 14.4424 0.114763 14.415 0.0870684C14.3876 0.0593737 14.355 0.0374276 14.3192 0.0224872C14.2834 0.00754679 14.245 -9.45285e-05 14.2063 8.82576e-07H12.4513C12.4126 8.82576e-07 12.3743 0.00771261 12.3386 0.0226958C12.3029 0.0376789 12.2704 0.0596401 12.2431 0.0873253C12.2158 0.115011 12.1941 0.147878 12.1793 0.18405C12.1645 0.220223 12.1569 0.258992 12.1569 0.298145V5.10327C12.1566 5.80655 12.2932 6.50298 12.5588 7.15277C12.8245 7.80255 13.214 8.39295 13.7051 8.8902C14.1962 9.38746 14.7793 9.78183 15.421 10.0508C16.0627 10.3197 16.7504 10.4579 17.4449 10.4575H22.19C22.2679 10.4575 22.3426 10.4262 22.3977 10.3704C22.4527 10.3146 22.4837 10.239 22.4837 10.1601V8.38286C22.4838 8.34374 22.4762 8.30499 22.4615 8.26882C22.4468 8.23265 22.4252 8.19978 22.3979 8.17208C22.3706 8.14439 22.3382 8.12242 22.3025 8.10742C22.2669 8.09243 22.2286 8.08471 22.19 8.08471H17.4449Z" fill="white"/>
<path d="M26.4028 4.34173C26.3995 4.28522 26.4075 4.22862 26.4264 4.17526C26.4454 4.12189 26.4748 4.07284 26.513 4.03099C26.5549 3.99155 26.6046 3.9611 26.6588 3.94155C26.713 3.922 26.7707 3.91375 26.8282 3.91731H36.8772C36.9332 3.91514 36.9891 3.92445 37.0413 3.94465C37.0936 3.96486 37.1411 3.99553 37.181 4.03478C37.2569 4.11861 37.2965 4.22893 37.2912 4.34173V5.8575C37.2962 5.9737 37.2569 6.08748 37.181 6.17581C37.1409 6.21456 37.0933 6.24466 37.041 6.26422C36.9887 6.28378 36.933 6.29238 36.8772 6.28949H33.1971V18.1352C33.2016 18.1918 33.1941 18.2487 33.1751 18.3023C33.1562 18.3558 33.1261 18.4047 33.087 18.446C33.0439 18.486 32.993 18.5167 32.9374 18.5363C32.8819 18.5559 32.8229 18.5638 32.7642 18.5596H30.8994C30.8425 18.5631 30.7854 18.5548 30.7318 18.5353C30.6782 18.5157 30.6293 18.4853 30.588 18.446C30.5489 18.4047 30.5189 18.3558 30.4999 18.3023C30.4809 18.2487 30.4734 18.1918 30.4779 18.1352V6.29707H26.8282C26.7719 6.30003 26.7155 6.29148 26.6626 6.27193C26.6097 6.25238 26.5614 6.22225 26.5206 6.18339C26.4802 6.14113 26.449 6.0911 26.4288 6.03636C26.4085 5.98163 26.3997 5.92334 26.4028 5.86508V4.34173Z" fill="white"/>
<path d="M39.0305 7.43396C39.6884 6.29414 40.6388 5.34977 41.7839 4.698C42.9561 4.04209 44.2776 3.69763 45.6216 3.69763C46.9655 3.69763 48.287 4.04209 49.4593 4.698C50.6165 5.36143 51.5757 6.32069 52.2379 7.47697C52.9001 8.63325 53.2414 9.94476 53.2267 11.2764C53.2391 12.6059 52.8942 13.9145 52.2279 15.0659C51.5696 16.2009 50.6172 17.1381 49.4706 17.7791C48.2954 18.4301 46.9734 18.7717 45.6292 18.7717C44.285 18.7717 42.9629 18.4301 41.7877 17.7791C40.6383 17.1392 39.6832 16.2019 39.0229 15.0659C38.3538 13.9152 38.0063 12.6066 38.0164 11.2764C37.9998 9.92765 38.3502 8.59964 39.0305 7.43396ZM41.3851 13.6941C41.8056 14.4253 42.4156 15.03 43.1511 15.4448C43.9075 15.8594 44.7566 16.0768 45.6197 16.0768C46.4827 16.0768 47.3318 15.8594 48.0882 15.4448C48.8276 15.0293 49.4415 14.4232 49.8658 13.6899C50.29 12.9566 50.509 12.1231 50.4999 11.2764C50.513 10.4199 50.2959 9.57553 49.8711 8.83112C49.4463 8.08672 48.8294 7.46949 48.0844 7.04365C47.3304 6.62176 46.4804 6.4002 45.6159 6.4002C44.7514 6.4002 43.9013 6.62176 43.1473 7.04365C42.4117 7.46132 41.8008 8.0669 41.3775 8.79815C40.9427 9.55107 40.7209 10.4076 40.7357 11.2764C40.7291 12.1261 40.9535 12.9616 41.3851 13.6941Z" fill="white"/>
<path d="M66.519 4.03077C66.595 4.11351 66.637 4.22172 66.6367 4.33393V18.1236C66.6381 18.1809 66.6281 18.2378 66.6072 18.2912C66.5864 18.3445 66.5551 18.3932 66.5152 18.4344C66.478 18.4756 66.4322 18.5081 66.381 18.5297C66.3298 18.5513 66.2745 18.5615 66.219 18.5594H64.3201C64.2658 18.5604 64.2119 18.5497 64.1622 18.5281C64.1124 18.5066 64.0678 18.4746 64.0314 18.4344C63.9554 18.3532 63.9132 18.2461 63.9137 18.135V13.9287C63.4073 14.1499 62.879 14.3176 62.3376 14.4289C61.7255 14.5448 61.1034 14.5994 60.4805 14.5919C59.47 14.6138 58.4709 14.3764 57.5789 13.9022C56.7533 13.4421 56.0812 12.7504 55.6458 11.9128C55.1625 10.9765 54.9223 9.93415 54.9471 8.88123V4.33393C54.9375 4.22263 54.97 4.11178 55.0382 4.02319C55.0714 3.98314 55.1132 3.95108 55.1606 3.92943C55.2079 3.90777 55.2596 3.89708 55.3116 3.89814H57.2105C57.2689 3.89734 57.3267 3.90872 57.3803 3.93157C57.434 3.95441 57.4822 3.9882 57.522 4.03077C57.5639 4.06943 57.5973 4.11632 57.6202 4.16849C57.6431 4.22066 57.6549 4.27698 57.6549 4.33393V8.88123C57.6401 9.4575 57.7707 10.0282 58.0347 10.541C58.2791 11.0051 58.6575 11.3853 59.1208 11.6324C59.6378 11.8948 60.212 12.025 60.7919 12.0113C61.3376 12.0205 61.8823 11.9619 62.4136 11.837C62.9361 11.6986 63.4447 11.5121 63.9327 11.2799V4.33393C63.9319 4.2209 63.9755 4.11207 64.0542 4.03077C64.0894 3.98966 64.1331 3.95655 64.1822 3.93368C64.2314 3.9108 64.2848 3.89868 64.339 3.89814H66.238C66.2915 3.89922 66.3443 3.91159 66.3927 3.93445C66.4411 3.95731 66.4842 3.99014 66.519 4.03077Z" fill="white"/>
<path d="M82.0816 3.98549C82.1414 4.05182 82.1728 4.13888 82.169 4.22801V18.2489C82.1718 18.292 82.1655 18.3352 82.1504 18.3756C82.1354 18.4161 82.1119 18.453 82.0816 18.4838C82.0494 18.5131 82.0117 18.5356 81.9705 18.5499C81.9294 18.5642 81.8858 18.5701 81.8424 18.5672H79.7574C79.7156 18.5701 79.6738 18.5642 79.6345 18.5499C79.5952 18.5355 79.5594 18.513 79.5295 18.4838C79.5006 18.4522 79.4784 18.4151 79.464 18.3747C79.4497 18.3344 79.4435 18.2916 79.4459 18.2489V13.8986H72.1503V18.2413C72.1532 18.2844 72.1468 18.3276 72.1318 18.3681C72.1167 18.4085 72.0933 18.4454 72.063 18.4762C72.032 18.5049 71.9955 18.5271 71.9557 18.5414C71.9159 18.5558 71.8736 18.5619 71.8313 18.5596H69.7463C69.7029 18.5625 69.6593 18.5567 69.6181 18.5423C69.577 18.528 69.5392 18.5055 69.5071 18.4762C69.4761 18.4459 69.4523 18.4091 69.4372 18.3685C69.4221 18.3279 69.4161 18.2844 69.4197 18.2413V4.22801C69.4168 4.18377 69.423 4.13939 69.438 4.09765C69.453 4.05592 69.4766 4.01774 69.5071 3.98549C69.5389 3.95553 69.5766 3.93235 69.6177 3.91737C69.6588 3.90239 69.7026 3.89591 69.7463 3.89833H71.8313C71.8738 3.89672 71.9162 3.9036 71.956 3.91857C71.9958 3.93354 72.0321 3.95629 72.063 3.98549C72.1228 4.05182 72.1541 4.13888 72.1503 4.22801V11.5075H79.4459V4.22801C79.4426 4.13962 79.4724 4.05318 79.5295 3.98549C79.5591 3.95565 79.5947 3.93244 79.634 3.91741C79.6733 3.90238 79.7154 3.89588 79.7574 3.89833H81.8424C81.8861 3.89591 81.9298 3.90239 81.971 3.91737C82.0121 3.93235 82.0497 3.95553 82.0816 3.98549Z" fill="white"/>
<path d="M85.7995 7.43396C86.4596 6.29581 87.4095 5.35195 88.5529 4.698C89.7252 4.04209 91.0466 3.69763 92.3906 3.69763C93.7346 3.69763 95.056 4.04209 96.2283 4.698C97.3866 5.36064 98.3467 6.31962 99.0096 7.47601C99.6725 8.63239 100.014 9.94431 99.9995 11.2764C100.008 12.607 99.6595 13.9155 98.9893 15.0659C98.3311 16.2009 97.3787 17.1381 96.2321 17.7791C95.0568 18.4301 93.7348 18.7717 92.3906 18.7717C91.0464 18.7717 89.7244 18.4301 88.5491 17.7791C87.4033 17.1371 86.4512 16.2001 85.7919 15.0659C85.1229 13.9152 84.7753 12.6066 84.7855 11.2764C84.7688 9.92765 85.1193 8.59964 85.7995 7.43396ZM88.1541 13.6941C88.5757 14.4245 89.1854 15.029 89.9201 15.4448C90.6766 15.8594 91.5256 16.0768 92.3887 16.0768C93.2518 16.0768 94.1008 15.8594 94.8573 15.4448C95.5976 15.0301 96.2125 14.4243 96.6375 13.6909C97.0625 12.9575 97.2819 12.1235 97.2727 11.2764C97.2801 10.4227 97.0595 9.58233 96.6337 8.84176C96.2079 8.10119 95.5921 7.48711 94.8497 7.06259C94.0959 6.64 93.2458 6.41803 92.3811 6.41803C91.5165 6.41803 90.6663 6.64 89.9125 7.06259C89.1723 7.48802 88.5593 8.10283 88.1367 8.84357C87.7141 9.58431 87.4972 10.4242 87.5085 11.2764C87.5006 12.1257 87.7237 12.9613 88.1541 13.6941Z" fill="white"/>
</svg>
