<svg width="30" height="30" viewBox="0 0 30 30" fill="none" xmlns="http://www.w3.org/2000/svg">
<path d="M23.193 14.64C23.1927 15.206 23.137 15.7705 23.0265 16.3256C22.9965 16.4777 22.9258 16.6187 22.822 16.7338C22.7182 16.8489 22.5851 16.9336 22.4369 16.9791C22.2888 17.0246 22.1311 17.029 21.9806 16.992C21.8301 16.955 21.6924 16.8779 21.5823 16.7689L11.3853 6.57186C11.2241 6.41073 11.0055 6.32021 10.7776 6.32021C10.5497 6.32021 10.3311 6.41073 10.17 6.57186L6.56771 10.1658C6.40657 10.327 6.31605 10.5455 6.31605 10.7734C6.31605 11.0014 6.40657 11.2199 6.56771 11.3811L16.7647 21.5781C16.8737 21.6883 16.9508 21.8259 16.9879 21.9764C17.0249 22.1269 17.0204 22.2846 16.9749 22.4328C16.9295 22.5809 16.8447 22.714 16.7296 22.8178C16.6146 22.9216 16.4735 22.9923 16.3215 23.0223C15.7664 23.1328 15.2018 23.1886 14.6358 23.1888L0.855309 23.1888C0.742639 23.1888 0.631078 23.2111 0.527036 23.2543C0.422994 23.2976 0.328522 23.3609 0.249045 23.4408C0.169569 23.5207 0.106655 23.6154 0.0639174 23.7197C0.0211802 23.8239 -0.000538148 23.9356 1.01276e-05 24.0483L1.01276e-05 29.1468C0.000561172 29.3733 0.090916 29.5903 0.251256 29.7502C0.411596 29.9102 0.62883 30 0.855309 30L14.64 30C16.6573 30.0008 18.655 29.6041 20.519 28.8325C22.3829 28.0608 24.0765 26.9295 25.503 25.503C26.9295 24.0765 28.0608 22.3829 28.8325 20.519C29.6041 18.655 30.0008 16.6573 30 14.64L30 0.8553C30 0.62882 29.9102 0.411586 29.7502 0.251246C29.5903 0.0909059 29.3733 0.000551045 29.1468 0L24.0483 0C23.8214 0 23.6039 0.0901117 23.4435 0.250511C23.2831 0.410911 23.193 0.62846 23.193 0.8553L23.193 14.64Z" fill="#212121"/>
</svg>
