<svg width="30" height="30" viewBox="0 0 30 30" fill="none" xmlns="http://www.w3.org/2000/svg">
<path fill-rule="evenodd" clip-rule="evenodd" d="M7.21448 14.4489C11.3923 12.6594 14.157 11.4631 15.5701 10.8666C19.5341 9.21329 20.3443 8.92801 20.9051 8.91504C21.1028 8.91504 21.2972 8.97015 21.4593 9.08361C21.5727 9.18735 21.644 9.32675 21.6635 9.47912C21.6894 9.6639 21.6894 9.84869 21.6635 10.0335C21.4496 12.2963 20.5226 17.7944 20.0462 20.3134C19.842 21.3832 19.4498 21.7398 19.0673 21.7754C18.2376 21.8467 17.6056 21.2276 16.805 20.7056C15.5442 19.8822 14.8409 19.37 13.619 18.5628C12.1994 17.6324 13.1166 17.1169 13.9301 16.287C14.1376 16.073 17.7968 12.7339 17.8681 12.4357C17.8811 12.3903 17.8811 12.3417 17.8681 12.2963C17.8551 12.2509 17.8325 12.2088 17.8033 12.1731C17.7579 12.1504 17.7061 12.1374 17.6542 12.1374C17.6023 12.1374 17.5505 12.1504 17.5051 12.1731C17.3722 12.1731 15.3757 13.5347 11.4831 16.167C11.0358 16.5139 10.4945 16.7117 9.93056 16.7344C9.17213 16.6403 8.42667 16.4685 7.70389 16.2157C6.81582 15.9304 6.09953 15.7748 6.15787 15.2723C6.19352 14.987 6.55329 14.7244 7.21448 14.4489Z" fill="white"/>
<path d="M28.2141 21.1044C28.1979 22.1677 27.9937 23.2213 27.6178 24.2133C27.3163 24.9914 26.8593 25.6948 26.2694 26.2848C25.6796 26.8749 24.973 27.332 24.1984 27.6335C23.2066 28.0095 22.1564 28.2105 21.0933 28.23C19.5052 28.3013 18.9736 28.3207 14.987 28.3207C11.0004 28.3207 10.4689 28.3207 8.87425 28.23C7.81439 28.204 6.76426 28.003 5.76923 27.6335C4.99136 27.332 4.28803 26.8619 3.71111 26.2622C3.11149 25.6819 2.65125 24.9719 2.36279 24.1906C1.98682 23.1954 1.78263 22.145 1.76642 21.0817C1.68863 19.5191 1.68863 18.9939 1.68863 15C1.68863 11.0061 1.68863 10.4809 1.77939 8.89237C1.79883 7.82905 2.00303 6.77869 2.37576 5.78344C2.66746 5.00216 3.1277 4.29868 3.72407 3.71839C4.30423 3.13162 5.00756 2.67776 5.78219 2.386C6.78047 2.01643 7.83059 1.81543 8.89045 1.7895C10.4786 1.71818 11.0037 1.69872 14.9968 1.69872C18.9898 1.69872 19.5149 1.69872 21.1031 1.7895C22.1629 1.81543 23.2131 2.01967 24.2081 2.386C24.9892 2.67452 25.6958 3.13486 26.2727 3.7346C26.8755 4.31489 27.339 5.02161 27.6275 5.80614C28.0002 6.80138 28.2044 7.85174 28.2239 8.91506C28.2952 10.5036 28.3146 11.0287 28.3146 15.0227C28.3146 19.0166 28.2854 19.5159 28.2141 21.1044ZM29.9092 8.81457C29.8833 7.5697 29.6467 6.3378 29.2124 5.17398C28.8364 4.17225 28.2465 3.26778 27.4816 2.51891C26.7329 1.75384 25.8287 1.16382 24.8239 0.787767C23.6571 0.353361 22.4255 0.116706 21.1841 0.0907715C19.5959 -9.66144e-09 19.0774 0 15 0C10.9226 0 10.417 -9.66144e-09 8.8159 0.0907715C7.5713 0.119948 6.33967 0.356603 5.1761 0.787767C4.17459 1.16382 3.26707 1.75384 2.51837 2.51891C1.75346 3.26778 1.16357 4.17549 0.787597 5.17398C0.350043 6.34104 0.11344 7.5697 0.0907515 8.81457C0.0194464 10.4128 0 10.9282 0 15C0 19.0718 -3.96033e-07 19.584 0.0907515 21.1854C0.116681 22.4303 0.353284 23.6622 0.787597 24.826C1.17329 25.8213 1.76318 26.7257 2.51837 27.4811C3.27355 28.2364 4.17783 28.8265 5.1761 29.2122C6.34291 29.6499 7.5713 29.8865 8.8159 29.9092C10.417 29.9805 10.9291 30 15 30C19.0709 30 19.583 30 21.1841 29.9092C22.4287 29.8833 23.6603 29.6499 24.8239 29.2122C25.8189 28.8265 26.7232 28.2364 27.4816 27.4811C28.2368 26.7257 28.8267 25.8213 29.2124 24.826C29.65 23.6622 29.8866 22.4303 29.9092 21.1854C29.9806 19.5872 30 19.0782 30 15C30 10.9218 29.9806 10.416 29.9092 8.81457Z" fill="white"/>
</svg>
