<svg width="140" height="140" viewBox="0 0 140 140" fill="none" xmlns="http://www.w3.org/2000/svg">
<g clip-path="url(#clip0_54_463)">
<path d="M4.6952 78.6699V0H0V140H140V135.305H61.3301C60.1147 104.593 35.4074 79.8853 4.6952 78.6699ZM39.0636 97.6216L27.2491 109.436L30.5687 112.756L42.3825 100.942C50.776 110.088 56.0662 122.081 56.6346 135.305H8.01473L17.2856 126.034L13.9661 122.714L4.6952 131.985V83.3653C17.9225 83.9341 29.9168 89.2251 39.0636 97.6216Z" fill="#CECECE"/>
<path d="M106.911 29.7671L120.19 16.4885L123.509 19.8076L110.23 33.0862L106.911 29.7671Z" fill="#CECECE"/>
<path d="M80.3533 56.3169L93.6295 43.0406L96.9487 46.3598L83.6724 59.636L80.3533 56.3169Z" fill="#CECECE"/>
<path d="M53.7932 82.8692L67.0718 69.5906L70.3909 72.9097L57.1123 86.1883L53.7932 82.8692Z" fill="#CECECE"/>
</g>
<defs>
<clipPath id="clip0_54_463">
<rect width="140" height="140" fill="white"/>
</clipPath>
</defs>
</svg>
