<svg width="30" height="30" viewBox="0 0 30 30" fill="none" xmlns="http://www.w3.org/2000/svg">
<g opacity="0.4">
<path d="M15.7819 20.4618C9.81168 20.4618 6.41172 16.3707 6.26587 9.55444H9.25096C9.34496 14.5539 11.5489 16.6757 13.2991 17.1104V9.55444H16.1157V13.8661C17.84 13.6812 19.6485 11.7151 20.2935 9.55444H23.1036C22.8735 10.677 22.4165 11.7379 21.7585 12.6722C21.1006 13.6066 20.2546 14.3982 19.2791 14.9886C20.3713 15.5337 21.3339 16.3026 22.1053 17.2434C22.8767 18.1875 23.4407 19.2841 23.7615 20.4585H20.6338C20.3519 19.4333 19.7685 18.5184 18.9647 17.8242C18.1609 17.1299 17.1691 16.6886 16.1157 16.5589V20.4585H15.7819V20.4618Z" fill="#101010"/>
<path d="M28.2206 21.1204C28.2012 22.1845 27.997 23.2356 27.6242 24.2316C27.3196 25.007 26.8593 25.711 26.2727 26.3015C25.6828 26.892 24.9795 27.3527 24.2048 27.6544C23.2098 28.0275 22.1564 28.2319 21.0966 28.2513C19.5084 28.3227 18.9834 28.3422 14.9903 28.3422C10.9972 28.3422 10.4721 28.3422 8.88396 28.2513C7.82087 28.2254 6.77074 28.021 5.77571 27.6544C4.99784 27.3527 4.29775 26.8822 3.72083 26.282C3.13094 25.7046 2.67718 25.007 2.38872 24.2316C2.01599 23.2356 1.8118 22.1845 1.79235 21.1204C1.72105 19.5307 1.7016 19.0051 1.7016 15.0081C1.7016 11.0111 1.7016 10.4856 1.79235 8.89586C1.81828 7.83173 2.02247 6.78058 2.38872 5.78458C2.67394 5.00595 3.1277 4.30194 3.71435 3.71796C4.30099 3.1275 5.0108 2.6733 5.79192 2.38456C6.78695 2.01471 7.84032 1.81356 8.90018 1.78761C10.4819 1.71623 11.0069 1.69677 15 1.69677C18.9931 1.69677 19.5181 1.69677 21.1063 1.78761C22.1694 1.81356 23.2195 2.01795 24.2146 2.38456C24.986 2.67005 25.686 3.12426 26.263 3.71147C26.8691 4.29545 27.339 5.0027 27.6372 5.79107C28.0067 6.78707 28.2077 7.83497 28.2336 8.89586C28.3049 10.4856 28.3243 11.0111 28.3243 15.0081C28.3243 19.0051 28.2952 19.5307 28.2239 21.1204H28.2206ZM29.9092 8.82124C29.8833 7.57543 29.6467 6.3426 29.2124 5.1779C28.8299 4.17541 28.2303 3.26701 27.4589 2.52082C26.7102 1.75516 25.806 1.1647 24.8012 0.788364C23.6441 0.356873 22.419 0.120039 21.1841 0.0908403C19.583 -9.66875e-09 19.1 0 15 0C10.9 0 10.417 -9.66875e-09 8.8159 0.0908403C7.57131 0.120039 6.33967 0.356873 5.1761 0.788364C4.17459 1.1647 3.26707 1.75516 2.51836 2.52082C1.75345 3.27025 1.16357 4.17865 0.787595 5.1779C0.350041 6.34584 0.11344 7.57543 0.0907516 8.82124C-3.96034e-07 10.4207 0 10.9365 0 15.0114C0 19.0862 -3.96034e-07 19.5988 0.0907516 21.2015C0.116681 22.4473 0.353282 23.6801 0.787595 24.8448C1.16681 25.8376 1.7567 26.7362 2.51836 27.4792C3.26707 28.2448 4.17459 28.8353 5.1761 29.2116C6.34291 29.6496 7.57131 29.8865 8.8159 29.9092C10.417 29.9805 10.9291 30 15 30C19.0709 30 19.583 30 21.1841 29.9092C22.4287 29.8832 23.6603 29.6496 24.8239 29.2116C25.8189 28.8256 26.7232 28.2351 27.4816 27.4792C28.2368 26.7233 28.8267 25.8181 29.2124 24.8221C29.65 23.6574 29.8866 22.4246 29.9092 21.1788C29.9806 19.5793 30 19.07 30 14.9886C30 10.9073 29.9806 10.4239 29.9092 8.82448V8.82124Z" fill="#101010"/>
</g>
</svg>
